<?xml version="1.0" standalone="no"?>
<!DOCTYPE svg PUBLIC "-//W3C//DTD SVG 20010904//EN"
 "http://www.w3.org/TR/2001/REC-SVG-20010904/DTD/svg10.dtd">
<svg version="1.0" xmlns="http://www.w3.org/2000/svg"
 width="500.000000pt" height="500.000000pt" viewBox="0 0 500.000000 500.000000"
 preserveAspectRatio="xMidYMid meet">
<metadata>
Created by potrace 1.14, written by Peter Selinger 2001-2017
</metadata>
<g transform="translate(0.000000,500.000000) scale(0.100000,-0.100000)"
fill="#000000" stroke="none">
<path d="M0 4983 c0 -10 4 -14 8 -8 4 6 11 13 16 18 5 4 2 7 -7 7 -10 0 -17
-8 -17 -17z"/>
<path d="M74 4963 c1 -24 -3 -37 -11 -36 -15 3 -23 -21 -12 -38 7 -11 9 -11 9
4 0 9 7 17 15 17 8 0 15 5 15 11 0 5 5 7 10 4 6 -4 17 -1 25 5 8 7 15 9 15 4
0 -5 9 5 20 21 11 17 30 33 42 37 13 3 -11 6 -53 7 l-76 1 1 -37z"/>
<path d="M260 4971 c0 -23 -6 -30 -25 -35 -14 -4 -31 -4 -37 0 -6 4 -8 -1 -4
-14 5 -15 1 -25 -13 -34 -12 -7 -21 -23 -21 -35 0 -16 -6 -23 -20 -23 -11 0
-20 -7 -20 -15 0 -8 8 -15 18 -15 10 0 23 -5 30 -12 9 -9 12 -8 12 5 0 9 3 16
8 15 13 -4 52 36 52 54 0 10 4 18 8 18 5 0 20 9 33 21 19 17 25 18 27 6 3 -17
50 -29 58 -16 3 5 -2 9 -10 9 -22 0 -34 30 -29 68 5 31 4 32 -31 32 -33 0 -36
-2 -36 -29z"/>
<path d="M460 4990 c0 -12 37 -12 65 0 15 7 10 9 -22 9 -24 1 -43 -3 -43 -9z"/>
<path d="M846 4983 c-3 -7 1 -13 9 -13 7 0 21 -7 29 -16 9 -8 24 -17 35 -19
23 -4 63 -26 73 -40 4 -5 5 -19 3 -30 -2 -11 -4 -22 -4 -25 -1 -3 -6 2 -12 10
-8 11 -12 12 -16 3 -2 -7 -11 -13 -18 -13 -7 0 -27 -12 -44 -26 -17 -14 -31
-21 -31 -15 0 6 5 11 10 11 6 0 10 5 10 10 0 6 -8 10 -18 10 -24 0 -58 35 -43
45 6 3 14 0 17 -9 9 -23 33 -28 31 -6 -1 10 -4 17 -8 14 -4 -2 -17 5 -30 15
-26 20 -49 18 -49 -5 0 -8 -7 -14 -15 -14 -9 0 -12 -6 -8 -17 4 -11 3 -14 -5
-9 -7 4 -12 17 -12 30 0 12 -5 27 -11 33 -9 9 -5 12 17 11 56 -1 64 2 64 22 0
23 -20 26 -71 9 -52 -18 -61 -27 -47 -52 8 -16 8 -22 -1 -25 -6 -2 -11 -10
-11 -19 0 -8 -5 -12 -12 -9 -7 3 -21 9 -30 12 -21 8 -32 35 -17 45 8 4 6 10
-7 17 -15 8 -22 6 -36 -16 -16 -24 -16 -27 3 -53 13 -18 16 -30 9 -34 -8 -5
-5 -14 6 -27 16 -16 16 -21 4 -28 -9 -6 -10 -10 -3 -10 6 0 15 -9 18 -20 3
-11 10 -20 15 -20 5 0 7 8 4 18 -4 13 -3 12 7 -3 7 -11 21 -29 31 -39 10 -11
18 -26 18 -33 0 -7 7 -13 15 -13 8 0 15 -5 15 -11 0 -5 5 -7 10 -4 6 3 10 0
10 -8 0 -8 -7 -17 -15 -21 -12 -4 -12 -10 -1 -36 7 -18 23 -37 36 -43 34 -17
34 -28 0 -78 -16 -24 -30 -52 -30 -63 0 -15 5 -12 29 13 29 31 55 39 66 21 7
-11 -51 -100 -65 -100 -5 0 -22 -19 -37 -42 -15 -24 -34 -51 -42 -62 -9 -10
-16 -36 -16 -59 0 -45 -18 -60 -30 -25 l-8 23 -4 -22 c-5 -26 -11 -28 -34 -10
-27 22 -29 44 -3 78 24 33 31 59 15 59 -5 0 -12 10 -16 23 -6 19 -8 19 -12 5
-2 -10 -9 -18 -14 -18 -5 0 -9 -8 -9 -17 -1 -16 -2 -16 -10 -2 -5 9 -12 31
-15 49 -3 18 -8 37 -10 41 -6 8 -45 0 -62 -13 -7 -6 -19 -5 -31 1 -17 9 -19
14 -9 36 7 14 21 25 31 25 28 0 16 6 -26 14 -34 6 -36 5 -31 -16 5 -19 3 -21
-8 -10 -16 15 -20 64 -6 73 6 4 7 15 3 24 -5 15 -7 15 -22 1 -8 -9 -20 -16
-25 -16 -5 0 -8 -6 -7 -12 4 -18 -44 -10 -59 9 -7 9 -16 13 -20 10 -4 -4 4
-15 18 -25 24 -17 28 -18 50 -21 8 -1 8 -5 1 -14 -6 -7 -8 -23 -5 -36 5 -21 4
-22 -33 -15 -49 8 -64 20 -64 50 0 12 -5 26 -11 30 -8 4 -7 9 2 15 7 4 10 11
7 14 -22 22 -37 -30 -19 -63 8 -15 3 -17 -50 -14 -48 3 -59 7 -65 24 -4 12 -1
24 7 30 10 7 8 8 -7 3 -18 -5 -55 20 -46 32 6 8 1 23 -8 23 -5 0 -7 -6 -4 -14
3 -7 -2 -16 -10 -19 -19 -7 -22 -28 -3 -22 6 2 23 -5 36 -16 19 -15 22 -22 12
-32 -9 -9 -14 -9 -20 2 -5 8 -16 11 -25 8 -13 -5 -16 -25 -16 -116 0 -121 10
-161 39 -161 14 0 22 -12 30 -47 7 -25 18 -55 26 -65 13 -19 13 -19 20 2 9 29
-2 86 -28 138 -24 49 -37 54 -37 12 0 -16 -4 -30 -10 -30 -15 0 -12 68 4 77 7
4 18 18 25 31 12 23 54 32 45 9 -2 -7 5 -22 16 -34 11 -12 20 -28 20 -35 1 -9
4 -8 13 3 7 9 25 19 41 23 26 6 28 5 23 -16 -4 -13 -3 -29 2 -36 11 -19 59
-10 83 15 23 24 43 29 53 13 8 -13 -7 -35 -24 -35 -8 0 -19 -8 -25 -17 -8 -14
-6 -21 9 -33 11 -9 15 -14 8 -11 -10 6 -20 -18 -59 -152 -9 -29 -24 2 -24 49
0 36 -4 49 -12 46 -8 -2 -13 -23 -13 -55 1 -29 -3 -52 -9 -52 -5 0 -7 3 -3 6
11 12 -15 64 -33 64 -23 0 -27 -11 -36 -109 -6 -79 -6 -82 20 -106 14 -13 26
-31 26 -39 0 -8 3 -21 6 -29 3 -8 -2 -22 -12 -31 -16 -16 -13 -17 47 -16 98 2
212 -36 301 -101 23 -16 59 -31 86 -34 92 -13 124 -27 203 -87 78 -60 127
-113 115 -125 -3 -4 -6 -1 -6 5 0 7 -7 12 -15 12 -8 0 -15 8 -16 18 0 11 -2
12 -6 4 -4 -9 -8 -10 -18 -2 -8 6 -33 10 -57 8 -39 -3 -41 -4 -22 -15 12 -7
37 -14 56 -16 56 -6 104 -67 52 -67 -8 0 -14 -5 -14 -11 0 -6 14 -9 32 -7 46
5 48 -20 1 -27 -21 -3 -53 -10 -72 -15 -22 -6 -62 -5 -109 1 -66 9 -86 8 -164
-11 l-88 -22 0 -37 c0 -20 12 -58 25 -86 14 -27 25 -55 25 -62 0 -23 43 -53
76 -53 33 0 52 -14 35 -24 -5 -4 -12 -2 -15 2 -9 15 -96 -31 -91 -48 4 -11 1
-10 -9 3 -7 9 -18 17 -25 17 -6 0 -11 5 -11 10 0 6 -7 10 -15 10 -8 0 -15 -4
-15 -10 0 -5 -9 -18 -20 -28 -13 -12 -20 -30 -18 -48 4 -59 -2 -115 -12 -109
-5 3 -10 -3 -10 -14 0 -11 4 -22 9 -26 5 -3 7 -21 4 -40 -5 -30 -1 -39 26 -64
17 -16 33 -25 36 -21 3 5 1 11 -5 15 -5 3 -10 10 -10 14 0 13 61 22 74 12 13
-10 56 4 56 19 0 5 -7 10 -15 10 -8 0 -15 -4 -15 -10 0 -5 -4 -10 -10 -10 -5
0 -10 7 -10 15 0 13 26 21 54 16 10 -2 46 38 46 51 0 5 7 2 16 -6 8 -9 23 -16
32 -16 14 0 14 2 3 9 -22 14 -5 41 26 41 21 0 24 -3 15 -12 -18 -18 -14 -30 6
-20 9 5 22 7 29 5 7 -3 13 9 15 29 3 30 6 33 47 40 25 4 49 12 54 17 6 6 18 4
32 -5 16 -10 29 -12 46 -6 13 5 29 7 36 5 7 -2 15 7 19 22 4 16 12 25 23 23
21 -3 131 44 131 57 0 6 12 23 26 39 23 26 29 28 72 21 26 -4 61 -8 77 -9 27
-1 30 -5 33 -36 l3 -35 -19 24 c-18 22 -50 22 -37 0 4 -5 -1 -9 -10 -9 -16 0
-37 -38 -28 -52 2 -5 -1 -8 -7 -8 -6 0 -15 10 -20 23 -8 18 -9 16 -4 -12 5
-29 4 -33 -10 -28 -10 4 -19 1 -22 -8 -4 -8 -15 -15 -25 -15 -16 0 -17 3 -7
25 6 14 16 25 21 25 6 0 7 3 4 6 -4 4 -13 1 -21 -5 -10 -9 -20 -9 -33 -2 -12
6 -25 6 -34 0 -11 -7 -11 -9 4 -9 16 0 21 -9 15 -27 -2 -5 -6 -7 -10 -5 -5 1
-8 -2 -8 -8 0 -15 -29 -12 -46 5 -22 22 -36 18 -32 -7 2 -13 -3 -23 -9 -24
-26 -3 -28 -5 -14 -13 11 -7 12 -13 3 -23 -14 -18 1 -43 22 -35 9 4 16 2 16
-2 0 -5 32 -12 72 -16 39 -4 108 -20 152 -35 45 -16 83 -27 85 -25 2 2 -10 15
-25 29 -22 19 -26 27 -17 36 14 15 53 -17 55 -46 1 -12 10 -19 24 -19 13 0 20
5 17 13 -3 6 -1 12 4 12 11 0 43 -97 43 -131 0 -30 32 -79 62 -95 33 -19 97
-18 104 1 9 23 23 18 35 -12 14 -38 6 -66 -9 -30 -14 32 -38 31 -35 -2 3 -26
6 -25 -45 -1 -24 12 -47 18 -52 15 -6 -3 -10 0 -10 8 0 19 -40 53 -73 61 -16
4 -25 11 -21 17 3 6 13 8 21 5 11 -5 13 -2 9 10 -3 8 -6 18 -6 20 0 3 -10 -1
-22 -7 -20 -11 -21 -10 -11 3 11 13 5 17 -45 29 -31 8 -66 13 -77 11 -11 -1
-39 -3 -62 -5 -23 -1 -45 -6 -50 -10 -12 -12 25 -36 48 -32 12 3 17 0 13 -7
-5 -7 1 -9 18 -5 28 7 58 -15 38 -28 -35 -21 27 -58 97 -56 60 1 73 -16 16
-21 -37 -3 -36 -4 22 -17 33 -8 83 -15 110 -17 28 -2 58 -3 67 -4 10 -1 20 -5
23 -10 3 -5 17 -5 32 1 30 11 34 8 63 -56 21 -45 54 -241 71 -419 13 -133 14
-130 -56 -142 -22 -3 -60 -18 -85 -33 -25 -15 -72 -35 -105 -45 -125 -38 -278
-129 -324 -193 -31 -43 -91 -74 -91 -48 0 8 5 17 10 20 5 3 10 11 10 18 0 6
-7 2 -15 -9 -8 -11 -14 -14 -15 -6 0 10 -5 10 -20 2 -11 -6 -20 -15 -20 -20 0
-6 9 -10 20 -10 26 0 26 -17 0 -25 -21 -7 -93 43 -104 72 -8 21 -23 8 -30 -27
-3 -20 0 -42 9 -60 15 -28 14 -29 -28 -65 -25 -22 -49 -34 -59 -31 -10 2 -18
0 -18 -5 0 -5 -7 -9 -16 -9 -10 0 -13 6 -9 19 8 25 -16 33 -54 18 -20 -7 -31
-18 -31 -30 0 -13 -5 -17 -14 -14 -18 7 -42 -20 -38 -44 2 -12 -10 -26 -36
-43 -68 -43 -102 -103 -46 -82 11 4 14 14 11 27 -4 17 -2 19 16 13 12 -3 24
-8 26 -10 7 -6 -21 -34 -34 -34 -7 0 -18 -7 -25 -15 -7 -8 -47 -36 -89 -61
-42 -25 -85 -55 -95 -66 -15 -16 -28 -19 -60 -15 -23 3 -50 8 -61 11 -11 4 -2
-3 20 -15 22 -12 42 -24 45 -26 3 -2 -16 -46 -42 -96 -25 -51 -56 -119 -69
-152 -13 -33 -36 -89 -51 -124 -31 -66 -33 -68 -93 -47 -18 7 -18 6 -3 -4 10
-6 18 -18 18 -25 0 -18 12 -19 28 -3 17 17 16 -12 -2 -37 -8 -11 -19 -40 -27
-65 -7 -25 -18 -50 -25 -56 -18 -15 -38 -68 -22 -58 8 5 9 -2 3 -27 -4 -19
-10 -50 -14 -69 l-8 -35 -6 45 c-4 25 -9 97 -12 160 -3 63 -9 140 -14 170 -13
80 -50 223 -61 234 -7 7 -10 -109 -10 -317 l0 -327 2500 0 2500 0 0 602 0 602
-22 23 c-23 25 -18 44 7 23 13 -11 15 -8 15 15 0 20 -4 26 -14 22 -17 -7 -76
20 -76 34 0 5 5 9 11 9 7 0 8 7 4 17 -4 10 -8 26 -9 35 -1 10 -11 27 -21 38
-13 14 -15 24 -8 31 8 8 7 19 -3 37 -18 34 -18 42 1 42 17 0 19 9 6 29 -11 18
9 40 29 33 12 -5 13 -3 3 10 -7 8 -9 18 -5 22 4 4 -2 14 -13 22 -15 11 -20 26
-20 64 0 28 -3 50 -7 50 -5 0 -8 7 -8 15 0 8 5 15 10 15 6 0 10 -4 10 -10 0
-5 7 -10 15 -10 8 0 15 5 15 11 0 5 4 8 9 4 6 -3 4 -20 -5 -41 -18 -43 -4
-108 26 -124 11 -6 20 -19 20 -29 0 -11 6 -21 14 -24 12 -5 15 12 15 96 l1
102 -39 40 c-36 38 -63 83 -41 70 6 -3 10 -2 10 4 0 5 -5 13 -10 16 -12 7 5
35 20 35 13 0 30 -58 19 -62 -5 -2 2 -19 16 -38 l25 -34 0 73 c0 64 -2 72 -18
67 -12 -4 -21 2 -30 23 -18 41 -57 49 -90 19 -16 -15 -23 -17 -20 -8 6 16 -3
17 -87 11 -24 -1 -27 -4 -14 -11 16 -9 16 -55 -1 -65 -8 -5 13 -112 27 -141 6
-10 9 -33 6 -50 -7 -46 -63 -72 -63 -28 0 8 -4 14 -10 14 -5 0 -10 -7 -10 -15
0 -8 5 -15 10 -15 16 0 12 -14 -12 -40 l-22 -24 -6 25 c-5 22 -11 24 -53 22
-26 -1 -49 3 -52 8 -4 5 -8 34 -11 64 -3 47 -1 55 14 55 16 1 16 1 -1 11 -10
6 -24 8 -32 5 -8 -3 -15 0 -17 6 -3 7 -13 3 -26 -10 -23 -23 -21 -47 4 -38 18
7 30 -14 14 -24 -8 -5 -9 -10 -2 -14 9 -5 2 -58 -10 -70 -2 -1 4 -11 12 -20 8
-10 15 -25 16 -33 2 -9 9 -22 17 -30 11 -11 12 -24 6 -51 -5 -21 -6 -44 -3
-54 3 -9 0 -19 -6 -23 -16 -10 -1 -25 26 -25 19 0 24 -5 24 -24 l0 -25 -52 21
c-29 12 -60 27 -68 33 -8 6 -35 17 -60 25 -25 7 -54 18 -65 25 -11 6 -47 21
-80 33 -125 43 -149 54 -223 94 -43 22 -95 53 -117 69 -22 15 -76 40 -120 55
-44 15 -83 32 -86 37 -7 11 -105 47 -127 47 -8 0 -30 13 -49 30 -34 30 -95 42
-107 21 -6 -9 -145 -5 -193 5 -12 2 -28 14 -34 27 -19 35 -76 278 -66 284 4 3
26 -7 49 -22 28 -19 47 -42 61 -76 18 -42 25 -49 48 -49 15 0 31 4 34 10 3 5
21 10 40 10 45 0 53 16 20 41 -18 15 -24 27 -20 40 14 42 -64 119 -119 119
-33 0 -64 25 -49 41 10 10 15 9 28 -1 21 -18 28 -8 15 25 -7 20 -7 31 1 41 8
10 8 14 0 14 -6 0 -11 7 -11 16 0 11 5 14 16 10 9 -3 18 -6 20 -6 2 0 4 -4 4
-10 0 -11 90 -110 101 -110 4 0 16 25 25 55 16 51 21 56 56 66 21 5 42 7 47 4
18 -11 -2 36 -21 49 -14 10 -18 20 -13 35 4 12 2 21 -4 21 -6 0 -11 -4 -11
-10 0 -5 -7 -10 -15 -10 -8 0 -17 14 -21 36 -5 26 -14 38 -32 45 -14 6 -32 19
-39 29 -15 21 -48 27 -58 10 -3 -5 -11 -10 -17 -10 -6 0 -3 11 6 24 8 14 18
44 22 68 3 24 22 108 42 188 26 106 35 169 36 232 1 49 2 88 4 88 1 0 7 -11
12 -25 15 -40 37 -20 61 57 12 39 31 78 42 87 79 64 115 104 90 100 -21 -3
-33 2 -33 15 0 21 -23 35 -68 41 -23 3 -67 12 -98 20 -50 13 -59 13 -77 0 -21
-15 -21 -15 -1 -15 11 0 29 -6 39 -14 18 -13 18 -14 -6 -21 -13 -5 -41 -7 -61
-7 -41 2 -45 -3 -23 -31 30 -41 133 -41 192 0 48 33 53 35 53 18 0 -9 -11 -27
-25 -41 -13 -13 -29 -33 -34 -43 -7 -13 -18 -17 -42 -13 -29 4 -31 3 -18 -11
10 -10 18 -12 27 -5 6 6 12 7 13 2 0 -5 1 -31 3 -59 3 -58 1 -66 -19 -58 -8 3
-18 23 -21 44 -4 21 -11 36 -16 33 -5 -4 -7 -18 -3 -33 7 -29 -2 -24 -19 11
-16 33 -79 37 -119 8 l-29 -22 8 33 c7 33 7 291 0 419 -3 56 -2 62 10 45 12
-17 15 -17 31 -3 21 18 90 31 98 17 16 -25 145 6 145 35 0 7 7 19 15 26 13 11
20 11 40 0 18 -10 34 -10 69 -1 54 13 118 14 132 2 23 -23 88 -51 117 -52 18
-1 58 1 91 4 l58 6 -6 -31 c-6 -30 -5 -30 12 -15 20 19 45 5 35 -19 -3 -8 0
-14 6 -14 6 0 11 5 11 11 0 5 4 7 10 4 11 -7 88 13 107 28 7 5 18 5 25 1 10
-5 10 -4 2 5 -9 10 -17 10 -32 2 -26 -14 -72 -14 -72 -1 0 6 6 11 13 12 6 0
17 2 22 2 6 1 15 4 20 7 6 3 27 7 47 8 26 1 37 -2 34 -11 -1 -7 -1 -10 1 -5 8
13 32 8 41 -9 7 -13 13 -14 29 -5 16 8 24 7 32 -3 6 -7 8 -15 5 -18 -3 -4 2
-21 11 -39 14 -27 15 -31 2 -26 -18 7 -57 -32 -57 -56 0 -9 -3 -17 -7 -17 -15
0 -43 -62 -43 -96 0 -32 -2 -34 -25 -28 -29 7 -34 -11 -10 -42 8 -10 15 -31
15 -45 0 -14 9 -34 19 -43 18 -17 20 -17 40 3 11 11 23 16 26 11 4 -6 3 -10
-2 -10 -4 0 -1 -5 7 -11 12 -8 10 -9 -7 -4 -18 5 -23 2 -23 -14 0 -11 -5 -23
-11 -27 -6 -3 -8 -18 -5 -33 5 -19 4 -22 -3 -11 -6 8 -13 11 -17 7 -4 -3 -1
-14 7 -23 12 -14 10 -19 -16 -40 -33 -26 -45 -30 -45 -13 0 14 -27 -7 -40 -31
-14 -26 61 -26 85 -1 9 11 23 17 31 14 22 -8 17 -20 -16 -40 -16 -9 -30 -23
-30 -29 0 -12 -9 -13 -90 -13 -108 1 -125 0 -128 -10 -2 -6 -11 -11 -21 -11
-11 0 -17 -9 -19 -29 -2 -23 3 -31 28 -41 16 -7 30 -17 30 -22 0 -6 12 -8 29
-5 16 4 36 0 47 -7 11 -8 35 -12 53 -10 19 2 40 -1 48 -7 7 -6 13 -9 13 -5 0
3 15 0 34 -8 19 -8 36 -12 39 -10 2 3 16 0 30 -5 19 -8 28 -6 37 5 7 7 10 14
7 14 -3 0 6 26 20 58 22 51 46 152 36 152 -2 0 -19 -11 -37 -25 -18 -14 -43
-25 -54 -25 -13 0 -22 -6 -22 -14 0 -8 -9 -14 -20 -13 -18 1 -18 3 4 32 48 62
73 155 43 155 -13 0 -47 30 -47 42 0 3 18 6 40 6 22 0 44 3 49 6 5 4 11 2 13
-4 5 -14 68 -25 68 -11 0 6 -11 13 -25 17 -28 7 -33 29 -10 38 8 3 15 10 15
16 0 6 -5 8 -12 4 -8 -5 -9 -2 -5 10 4 10 7 21 7 25 0 4 14 6 30 3 33 -5 69
16 49 28 -8 6 -6 13 8 27 11 11 17 25 15 31 -6 20 24 24 63 8 43 -18 39 -39
-5 -26 -26 7 -30 6 -30 -11 0 -10 -3 -18 -7 -16 -12 3 -15 -6 -8 -25 4 -10 18
-18 31 -18 13 0 24 -5 24 -11 0 -6 7 -8 16 -5 14 6 16 0 12 -44 -4 -42 -2 -50
11 -50 10 0 22 -5 29 -12 6 -6 30 -12 53 -14 40 -3 41 -3 25 15 -12 13 -14 21
-6 26 6 4 9 13 6 20 -8 21 54 -1 71 -25 9 -12 25 -20 44 -20 18 0 29 -5 29
-14 0 -19 -20 -25 -47 -15 -17 6 -21 5 -16 -6 3 -8 14 -15 25 -15 14 0 18 -5
15 -15 -4 -8 -2 -17 2 -20 5 -3 7 -14 4 -24 -4 -16 -1 -19 16 -14 22 6 24 10
22 58 -1 17 3 36 8 44 15 23 24 -24 17 -93 -3 -33 -2 -77 4 -96 l9 -35 -1 40
c0 71 1 75 24 75 21 0 21 0 -3 20 -19 17 -21 24 -12 39 8 12 7 27 -2 53 -10
30 -10 35 1 31 10 -3 14 3 14 21 0 14 -4 26 -10 26 -5 0 -10 -5 -10 -10 0 -7
-7 -7 -21 0 -24 13 -18 24 14 25 15 0 23 7 25 23 2 12 8 22 13 22 5 0 9 8 9
18 0 14 -2 14 -9 3 -9 -14 -25 14 -46 80 -4 13 -18 38 -31 54 -20 28 -21 31
-6 45 9 8 17 13 18 10 0 -3 17 8 37 24 l37 29 -1 206 c-1 113 -3 201 -6 194
-2 -7 -12 -9 -21 -6 -14 5 -15 3 -4 -8 6 -7 12 -21 12 -31 0 -18 -1 -18 -24
-1 -19 14 -22 21 -13 32 10 12 9 14 -5 8 -13 -4 -25 5 -45 32 -18 25 -35 39
-50 39 -31 0 -112 23 -119 33 -3 5 -14 9 -24 9 -10 0 -26 10 -35 22 -8 13 -23
23 -32 23 -12 0 -20 10 -23 29 -4 25 -7 27 -18 14 -7 -9 -11 -22 -10 -29 2 -9
-4 -13 -16 -11 -10 2 -22 -2 -27 -9 -12 -20 -22 -3 -10 18 6 10 11 14 11 10 0
-4 16 4 35 18 36 28 38 41 14 121 -12 39 -15 132 -4 163 6 20 4 23 -9 18 -8
-3 -18 -2 -21 4 -4 5 -11 7 -16 4 -19 -13 -29 6 -14 29 8 12 12 26 8 31 -5 4
0 5 10 2 10 -4 21 -7 23 -7 3 0 2 -4 -1 -10 -3 -5 1 -10 9 -10 19 0 30 17 14
22 -8 3 -4 12 10 26 13 13 25 36 28 52 4 16 15 37 25 46 11 9 19 22 19 28 0 6
-7 2 -15 -8 -14 -19 -15 -18 -41 7 -15 15 -31 27 -36 27 -5 0 -6 10 -2 22 6
20 5 21 -9 9 -23 -18 -54 -7 -37 14 17 21 36 19 60 -5 12 -12 26 -18 31 -14 8
4 7 9 -2 15 -12 7 -12 12 -1 30 7 11 11 24 8 27 -3 3 -6 2 -6 -2 0 -5 -9 2
-20 15 -10 13 -19 18 -20 12 0 -7 5 -13 10 -13 6 0 10 -8 10 -19 0 -17 -8 -19
-65 -18 -47 0 -65 4 -65 14 0 7 5 13 10 13 13 0 13 27 1 35 -6 3 -34 -17 -63
-45 -29 -27 -56 -50 -60 -50 -5 0 -8 -5 -8 -11 0 -6 6 -9 13 -6 6 2 22 -10 34
-26 12 -16 32 -35 45 -41 13 -6 23 -20 23 -30 0 -10 8 -23 18 -30 25 -19 22
-22 -23 -21 -22 0 -40 -2 -40 -5 0 -10 16 -27 35 -38 11 -6 15 -12 9 -12 -6 0
-23 9 -37 20 -22 18 -24 24 -16 53 11 40 12 37 -6 37 -8 0 -15 6 -15 14 0 17
-48 76 -61 76 -5 0 -19 -10 -31 -22 -12 -12 -33 -22 -47 -22 -14 -1 -32 -5
-38 -9 -14 -9 -83 20 -83 34 0 5 3 9 8 9 15 0 73 60 67 70 -3 5 -1 10 6 10 6
0 0 10 -15 21 -15 12 -25 24 -22 27 3 2 11 0 18 -5 7 -5 21 -13 31 -16 17 -6
17 -6 0 18 -10 13 -21 25 -25 25 -21 1 -5 20 16 20 14 0 28 5 32 12 5 8 -4 9
-35 4 -38 -6 -45 -4 -63 19 -13 17 -29 25 -51 25 -24 0 -28 -3 -19 -12 16 -16
15 -55 0 -65 -7 -4 -24 -9 -38 -11 -13 -2 -27 -7 -30 -11 -3 -5 -16 -11 -30
-15 -14 -4 -35 -12 -47 -18 -26 -13 -221 6 -237 22 -6 6 -18 10 -27 10 -10 0
-21 5 -25 12 -5 8 12 10 67 5 l74 -6 -45 16 c-25 9 -48 21 -52 26 -3 6 -20 10
-37 9 -18 0 -31 4 -31 12 0 6 -8 12 -17 12 -10 0 -28 4 -40 8 -18 6 -23 3 -23
-9 0 -14 -2 -14 -24 0 -16 11 -44 15 -90 14 -67 -2 -84 -13 -43 -29 12 -5 16
-9 10 -9 -22 -1 -14 -20 11 -27 14 -3 27 -12 30 -20 3 -8 12 -14 19 -14 20 0
50 -36 53 -65 3 -30 5 -29 -34 -10 -16 9 -53 21 -81 28 -54 13 -61 20 -33 36
9 6 12 11 5 11 -7 0 -17 10 -24 21 -8 15 -8 19 0 15 6 -4 11 0 11 9 0 9 -6 15
-12 14 -18 -3 -49 12 -43 21 2 4 -7 6 -20 4 -14 -1 -25 2 -25 8 0 5 -44 8
-112 7 -105 -2 -150 -10 -215 -41 -32 -15 -135 -4 -186 21 -43 21 -92 26 -135
15 -16 -5 -20 -10 -12 -19 12 -14 -31 -14 -90 0 -34 8 -34 9 -10 16 14 4 -18
7 -77 8 -63 1 -103 -3 -103 -9 0 -5 -7 -10 -15 -10 -8 0 -15 5 -15 10 0 13
-196 13 -221 0 -28 -15 -24 -42 12 -78 l31 -32 -30 0 c-31 0 -102 28 -102 40
0 4 -6 7 -12 8 -7 1 -26 4 -42 8 -18 4 -31 2 -36 -6 -5 -9 -28 -12 -69 -11
-40 1 -61 -2 -61 -10 0 -6 6 -9 14 -6 30 12 8 -29 -25 -46 -24 -12 -33 -23
-31 -37 2 -11 -1 -20 -7 -20 -22 0 -83 44 -96 70 -15 30 -53 47 -115 53 -20 2
-41 7 -49 11 -7 4 -15 5 -19 1 -4 -3 1 -11 11 -16 21 -12 22 -48 2 -55 -8 -4
-12 -10 -9 -15 8 -13 -10 -11 -23 2 -9 9 -8 17 3 34 10 16 12 25 5 30 -6 3
-11 -1 -11 -9 0 -19 -25 -21 -36 -4 -4 6 -3 9 2 6 5 -3 17 2 27 12 18 17 17
19 -15 49 -32 30 -35 31 -135 31 l-103 0 0 -25 c0 -30 -9 -31 -43 -5 -24 19
-57 18 -57 -1 0 -5 -10 -9 -22 -9 l-23 1 24 20 25 20 -97 -2 c-69 -2 -98 -6
-101 -16z m1817 -7 c3 3 11 3 17 -1 8 -5 8 -10 -1 -21 -9 -11 -15 -11 -35 4
-28 20 -32 37 -5 23 10 -6 21 -8 24 -5z m-323 -12 c0 -9 -5 -14 -12 -12 -18 6
-21 28 -4 28 9 0 16 -7 16 -16z m1782 4 c6 -15 -1 -38 -10 -38 -4 0 -8 11 -8
25 -2 26 10 34 18 13z m-3022 -34 c0 -8 -9 -35 -20 -60 -14 -30 -27 -44 -40
-44 -11 0 -21 6 -21 13 -5 54 -3 62 16 62 11 0 21 7 21 15 3 25 3 26 24 27 12
1 20 -4 20 -13z m246 3 c16 6 19 -13 3 -23 -11 -7 -29 13 -28 31 0 6 3 5 5 -2
3 -7 12 -9 20 -6z m959 2 c11 -17 -1 -21 -15 -4 -8 9 -8 15 -2 15 6 0 14 -5
17 -11z m244 -5 c17 -4 28 -10 25 -15 -3 -5 2 -6 10 -3 9 3 16 2 16 -4 0 -17
-27 -21 -65 -11 -20 6 -39 8 -43 5 -6 -7 -32 13 -32 25 0 10 44 12 89 3z
m-1329 -8 c0 -3 -4 -8 -10 -11 -5 -3 -10 -1 -10 4 0 6 5 11 10 11 6 0 10 -2
10 -4z m1430 -17 c0 -5 -7 -9 -15 -9 -15 0 -20 12 -9 23 8 8 24 -1 24 -14z
m140 11 c25 -6 55 -12 66 -15 12 -3 25 -15 28 -27 7 -22 7 -22 17 -3 7 15 8
12 3 -13 -4 -24 -2 -34 10 -38 9 -3 16 -12 16 -19 0 -7 6 -16 13 -19 6 -3 3
-4 -8 -3 -29 3 -25 -27 3 -31 16 -2 22 -8 18 -18 -7 -19 4 -18 21 4 8 9 12 11
8 4 -5 -9 11 -12 67 -10 40 1 104 -1 141 -4 37 -3 70 -1 73 4 3 4 -5 8 -18 9
-22 1 -20 2 21 15 11 3 10 9 -5 26 -19 20 -19 21 3 14 15 -5 24 -2 31 10 6 11
11 13 16 5 4 -6 2 -11 -3 -11 -22 0 -10 -15 21 -29 24 -11 33 -11 36 -3 6 19
41 14 59 -8 19 -21 48 -26 58 -10 3 6 12 10 18 10 7 -1 2 -9 -10 -19 -18 -15
-20 -20 -8 -25 8 -3 15 0 15 7 0 7 7 4 14 -6 8 -10 17 -14 20 -9 3 5 26 7 51
4 32 -3 45 -1 45 8 0 8 9 11 24 8 17 -4 23 -1 19 9 -3 7 -10 13 -15 13 -6 0
-5 6 2 15 10 12 9 16 -4 21 -20 8 -21 24 -1 24 9 0 21 -12 27 -27 11 -28 12
-28 16 -5 2 15 9 22 18 18 8 -3 14 1 14 10 0 9 -8 14 -17 13 -10 -1 -22 0 -28
1 -5 2 -17 4 -25 4 -35 4 -130 30 -130 36 0 4 6 13 14 19 11 9 25 10 58 1 74
-20 137 -54 138 -72 0 -11 8 -18 20 -18 11 0 20 -6 20 -12 0 -10 2 -10 8 0 6
9 21 11 50 6 29 -5 47 -2 58 7 15 12 16 11 10 -11 -4 -14 -4 -20 1 -15 15 18
42 16 68 -6 14 -13 25 -28 25 -35 0 -7 8 -17 18 -23 14 -8 15 -12 5 -22 -7 -7
-13 -23 -13 -36 0 -32 27 -19 35 17 3 16 13 31 21 34 9 4 12 2 8 -5 -3 -6 2
-25 11 -43 15 -27 27 -35 64 -43 25 -6 67 -8 92 -6 26 3 56 0 67 -6 18 -9 19
-8 14 11 -3 14 -1 19 6 14 7 -4 12 -15 12 -25 0 -10 17 -30 38 -45 40 -27 72
-36 37 -10 -17 12 -18 16 -5 24 23 14 87 -33 64 -48 -6 -4 -14 -15 -17 -25 -6
-15 -13 -17 -37 -12 -16 4 -37 1 -47 -5 -17 -10 -16 -11 2 -6 27 7 42 -4 46
-34 3 -15 15 -30 32 -38 34 -16 35 -39 2 -54 -32 -14 -44 -4 -80 67 -22 44
-33 44 -26 2 2 -13 -40 13 -46 28 -3 10 -12 6 -31 -16 -21 -26 -30 -30 -55
-25 -20 4 -36 0 -53 -13 -22 -17 -27 -18 -66 -4 -24 8 -45 17 -48 19 -7 7 22
24 41 24 9 0 34 8 55 17 22 9 45 16 52 14 6 -1 19 2 28 7 23 13 -24 29 -104
36 -35 3 -70 12 -78 20 -8 9 -21 13 -28 10 -8 -3 -26 2 -40 11 -25 17 -61 17
-128 0 -15 -4 -40 -4 -54 -1 -25 7 -26 8 -8 21 11 8 26 15 35 15 9 0 20 11 23
25 4 14 10 25 14 25 13 -1 38 -25 45 -43 6 -15 9 -16 21 -5 19 18 0 46 -36 53
-30 7 -38 32 -13 41 8 4 21 1 29 -5 7 -6 15 -8 18 -5 3 3 9 0 14 -7 4 -8 3
-10 -4 -5 -7 4 -12 2 -12 -3 0 -6 2 -11 4 -11 2 0 12 -3 22 -7 12 -4 15 -3 10
5 -4 8 1 15 15 20 21 8 21 9 -7 30 -16 12 -35 27 -43 33 -10 9 -15 9 -21 -1
-4 -6 -25 -12 -46 -12 -22 0 -43 -5 -47 -11 -6 -9 -10 -9 -14 1 -7 17 -33 15
-47 -3 -13 -17 -216 -49 -273 -43 -18 2 -34 0 -36 -5 -1 -5 3 -43 10 -84 13
-79 11 -93 -14 -93 -13 0 -139 119 -131 125 2 1 17 11 35 23 17 12 44 23 60
23 27 2 27 2 3 6 -14 3 -29 9 -34 13 -5 5 -30 -2 -57 -16 -27 -13 -55 -24 -63
-24 -17 0 -29 -27 -15 -36 6 -3 8 -11 6 -17 -2 -7 0 -23 5 -36 18 -49 -28 -60
-81 -19 -13 10 -29 18 -36 18 -17 0 -25 -36 -11 -50 8 -9 5 -11 -14 -8 -21 2
-24 8 -22 31 2 19 -1 27 -11 27 -9 0 -24 3 -34 7 -15 6 -16 4 -6 -9 11 -12 9
-19 -11 -37 -26 -25 -48 -20 -66 15 -11 19 -11 27 -2 36 20 20 13 36 -17 43
-32 7 -47 31 -32 49 6 7 7 23 4 35 -6 23 -7 23 -20 5 -14 -18 -15 -18 -34 5
-10 13 -19 32 -19 42 0 10 -5 19 -11 19 -5 0 -7 -4 -4 -10 8 -13 -14 -13 -51
0 -27 9 -77 18 -114 19 -9 1 -24 14 -33 31 -17 28 -17 29 5 42 13 7 30 13 38
13 8 1 14 6 13 13 -2 7 4 9 14 5 11 -4 14 -3 9 6 -6 10 -3 10 12 0 18 -11 24
-10 40 4 19 17 20 17 26 0 4 -10 2 -19 -3 -21 -6 -2 -11 -10 -11 -18 0 -19 56
-19 64 1 3 8 12 15 21 15 24 0 17 20 -7 21 -17 1 -19 2 -5 6 9 2 17 9 17 14 0
6 -4 7 -10 4 -5 -3 -28 4 -51 15 -22 12 -47 19 -54 16 -9 -3 -12 0 -8 10 6 16
5 16 63 4z m-430 -30 c0 -30 -57 -90 -85 -90 -21 0 -19 11 11 43 16 17 23 34
20 44 -7 18 3 28 34 30 16 1 20 -4 20 -27z m770 4 c0 -2 -7 -4 -15 -4 -8 0
-15 4 -15 10 0 5 7 7 15 4 8 -4 15 -8 15 -10z m103 -30 c15 -8 27 -16 27 -17
0 -6 -66 -2 -75 5 -5 5 -19 15 -30 24 -19 14 -18 15 15 8 19 -3 47 -13 63 -20z
m87 16 c0 -5 -2 -10 -4 -10 -3 0 -8 5 -11 10 -3 6 -1 10 4 10 6 0 11 -4 11
-10z m-1887 -80 c5 -19 -8 -48 -17 -39 -3 3 -12 22 -21 42 l-15 37 24 -11 c13
-6 26 -19 29 -29z m-783 26 c0 -2 -7 -7 -16 -10 -8 -3 -12 -2 -9 4 6 10 25 14
25 6z m670 -38 c0 -27 -19 -22 -30 8 -14 35 -13 36 10 22 11 -7 20 -21 20 -30z
m1917 -4 c-3 -3 -12 -4 -19 -1 -8 3 -5 6 6 6 11 1 17 -2 13 -5z m-2342 -33 c6
-11 -33 -26 -43 -16 -4 3 0 10 8 15 19 12 27 12 35 1z m1695 -7 c0 -8 -5 -12
-10 -9 -6 4 -8 11 -5 16 9 14 15 11 15 -7z m-1301 -31 c-15 -18 -34 -1 -25 22
5 14 9 15 21 5 12 -10 13 -16 4 -27z m2341 33 c0 -11 -19 -15 -25 -6 -3 5 1
10 9 10 9 0 16 -2 16 -4z m-2694 -71 c3 -17 -21 -21 -31 -5 -4 6 -4 18 -1 27
5 12 9 14 18 5 7 -7 13 -19 14 -27z m3299 0 c28 0 53 -4 57 -10 4 -5 15 -10
24 -10 10 0 19 -6 22 -13 2 -7 0 -12 -5 -10 -4 1 -24 -1 -45 -5 -30 -6 -47 -2
-97 23 -66 34 -77 45 -33 33 15 -5 50 -8 77 -8z m155 -35 c0 -5 -8 -10 -17
-10 -15 0 -16 2 -3 10 19 12 20 12 20 0z m-2181 -150 c15 0 32 5 38 11 8 8 22
5 51 -10 23 -12 47 -21 54 -21 7 1 -9 13 -37 27 -30 16 -44 28 -34 30 17 4
201 -87 238 -117 13 -11 21 -23 18 -26 -6 -7 -167 23 -176 31 -2 3 4 5 15 5
19 1 19 1 0 15 -25 19 -36 19 -36 0 0 -8 -6 -16 -12 -16 -39 -4 -178 -3 -178
1 0 3 7 16 16 28 10 15 12 27 6 35 -5 7 -12 21 -15 32 -6 18 -5 17 9 -2 10
-14 27 -23 43 -23z m2344 -20 c3 -11 1 -18 -4 -14 -5 3 -9 12 -9 20 0 20 7 17
13 -6z m-1584 -78 c22 14 41 4 24 -13 -14 -14 -75 -7 -81 9 -3 11 0 12 17 3
15 -9 25 -8 40 1z m472 -66 c6 -6 9 -4 9 6 0 8 7 21 15 28 9 8 15 9 15 2 0 -6
-4 -14 -10 -17 -5 -3 -10 -19 -10 -36 0 -16 -4 -29 -10 -29 -5 0 -10 -9 -10
-20 0 -11 5 -20 11 -20 17 0 35 -23 43 -53 5 -21 3 -27 -10 -27 -11 0 -14 -5
-9 -17 18 -44 17 -52 -2 -47 -11 3 -25 -2 -32 -10 -9 -11 -10 -16 -2 -16 6 0
11 -9 11 -20 0 -28 -16 -25 -46 7 -65 70 -70 181 -12 281 32 56 33 56 36 27 2
-16 8 -34 13 -39z m867 52 c19 -19 14 -29 -8 -16 -20 13 -27 28 -12 28 4 0 13
-5 20 -12z m72 -47 c0 -3 -14 -6 -30 -7 -35 -1 -34 -3 -18 32 l12 26 18 -22
c10 -12 18 -25 18 -29z m-3060 -5 c0 -7 12 -19 26 -27 15 -8 60 -50 101 -94
55 -59 76 -76 82 -66 5 8 14 10 21 6 10 -6 10 -10 -2 -19 -8 -6 -18 -23 -21
-38 -4 -15 -15 -28 -26 -30 -15 -2 -17 -5 -6 -15 10 -9 21 -1 51 39 44 58 53
63 77 46 16 -12 15 -18 -22 -74 -22 -34 -46 -64 -54 -67 -8 -3 -23 -27 -32
-54 -26 -69 -42 -83 -37 -33 5 44 -1 47 -46 24 -23 -11 -32 -23 -32 -39 0 -34
-18 -41 -30 -11 -12 32 -24 33 -44 4 -13 -18 -18 -19 -31 -8 -8 7 -15 22 -16
34 0 20 -1 20 -17 -3 -48 -69 -47 -70 -47 34 -1 52 2 95 6 95 3 0 4 11 1 25
-4 21 -1 24 14 18 11 -4 6 5 -12 22 l-32 28 34 45 c39 50 60 95 70 147 6 32
24 40 24 11z m2990 -16 c0 -5 -2 -10 -4 -10 -3 0 -8 5 -11 10 -3 6 -1 10 4 10
6 0 11 -4 11 -10z m160 -11 c0 -11 -4 -17 -10 -14 -5 3 -10 13 -10 21 0 8 5
14 10 14 6 0 10 -9 10 -21z m-843 -11 c-3 -8 -6 -5 -6 6 -1 11 2 17 5 13 3 -3
4 -12 1 -19z m-3377 -8 c0 -5 -5 -10 -11 -10 -5 0 -7 5 -4 10 3 6 8 10 11 10
2 0 4 -4 4 -10z m1553 -17 c9 -3 24 0 32 7 9 8 15 8 15 2 0 -18 -28 -40 -60
-47 -18 -4 -41 -21 -57 -41 -14 -20 -39 -42 -55 -50 l-28 -15 36 68 c40 75 61
97 84 87 8 -3 23 -9 33 -11z m2684 -15 c-3 -7 -5 -2 -5 12 0 14 2 19 5 13 2
-7 2 -19 0 -25z m-2804 -15 c-7 -2 -19 -2 -25 0 -7 3 -2 5 12 5 14 0 19 -2 13
-5z m-1084 -16 c-52 -39 -104 -94 -120 -126 -10 -20 -18 -30 -19 -23 0 19 -14
14 -25 -10 -6 -14 -17 -22 -27 -20 -12 2 -20 -6 -24 -23 -3 -14 -11 -25 -18
-25 -11 0 -86 -149 -86 -170 0 -21 21 -19 29 2 9 24 9 25 30 -34 13 -35 24
-35 41 -3 7 14 17 26 22 26 4 1 12 2 17 3 12 1 43 42 63 81 39 78 60 115 74
126 24 20 16 -6 -21 -68 -19 -31 -32 -59 -29 -62 3 -3 10 2 15 12 10 17 39 24
39 10 -1 -14 -34 -50 -52 -56 -10 -3 -20 -19 -24 -34 -4 -15 -15 -38 -24 -50
l-18 -23 -6 26 c-7 26 -7 26 -27 8 -16 -15 -19 -26 -14 -54 7 -34 7 -34 -13
-17 -20 18 -21 18 -32 -3 -8 -15 -15 -19 -22 -12 -7 7 -7 16 0 28 10 19 -1 54
-16 54 -5 0 -14 -16 -22 -35 -8 -19 -17 -35 -20 -35 -4 0 -17 21 -30 46 -24
46 -40 64 -40 45 0 -6 -7 -11 -15 -11 -19 0 -19 11 0 36 9 12 14 14 15 6 0
-20 90 80 90 100 0 10 3 18 8 18 10 0 45 66 45 85 0 8 3 12 7 10 4 -3 13 23
20 58 15 78 31 117 47 117 16 0 11 -56 -5 -72 -7 -7 -12 -18 -12 -26 0 -9 7
-5 19 9 25 31 38 19 16 -14 -16 -25 -16 -25 4 -20 12 3 21 14 21 25 0 23 18
43 46 52 12 3 31 18 44 31 13 14 33 25 44 25 19 -1 19 -2 5 -13z m4031 -74 c0
-5 -5 -15 -10 -23 -7 -11 -12 -12 -21 -3 -6 6 -8 16 -5 22 8 12 36 15 36 4z
m-4090 -21 c0 -4 -4 -12 -9 -17 -4 -6 -14 -31 -21 -57 -7 -26 -33 -78 -57
-115 -25 -38 -49 -78 -54 -90 -9 -24 -33 -30 -45 -12 -4 7 0 16 9 20 8 5 28
30 43 56 15 27 39 64 54 83 15 19 28 48 28 64 2 32 26 76 42 76 6 0 10 -4 10
-8z m40 -52 c0 -11 -4 -20 -9 -20 -11 0 -22 26 -14 34 12 12 23 5 23 -14z
m4183 -12 c3 -10 8 -10 18 -2 20 15 58 9 79 -12 18 -19 18 -20 -5 -46 -22 -26
-38 -29 -107 -19 -4 1 -12 11 -19 22 -8 16 -8 27 2 45 14 27 25 31 32 12z
m-4296 -30 c-3 -8 -6 -5 -6 6 -1 11 2 17 5 13 3 -3 4 -12 1 -19z m3923 -34 c0
-8 -4 -14 -10 -14 -5 0 -10 9 -10 21 0 11 5 17 10 14 6 -3 10 -13 10 -21z
m-730 6 c0 -5 -5 -10 -11 -10 -5 0 -7 5 -4 10 3 6 8 10 11 10 2 0 4 -4 4 -10z
m1231 -30 c-3 -8 -5 -25 -5 -37 -1 -13 -5 -23 -9 -23 -4 0 -14 -6 -21 -12 -12
-11 -12 -16 2 -31 10 -12 12 -21 5 -28 -14 -14 -39 -2 -51 26 -12 26 -31 25
-64 -3 -20 -17 -20 -17 -22 20 -1 15 2 24 6 22 4 -3 7 5 5 17 -3 28 16 35 38
13 9 -10 27 -18 40 -19 19 0 24 6 29 38 6 33 10 38 29 35 14 -2 20 -9 18 -18z
m-625 -27 c-10 -10 -19 5 -10 18 6 11 8 11 12 0 2 -7 1 -15 -2 -18z m443 -23
c-19 -12 -39 0 -39 22 0 14 5 18 15 15 8 -4 18 -1 22 6 5 8 9 4 11 -12 2 -13
-2 -27 -9 -31z m-859 5 c0 -2 -9 -9 -20 -15 -12 -6 -20 -7 -20 -1 0 5 8 12 18
14 9 3 18 5 20 6 1 0 2 -1 2 -4z m-218 -33 c-7 -2 -12 -10 -12 -18 0 -8 -5
-14 -11 -14 -6 0 -8 7 -5 16 3 9 6 20 6 25 0 4 8 5 17 2 11 -4 12 -8 5 -11z
m1252 -17 c3 -8 12 -15 21 -15 19 0 19 -7 1 -26 -18 -17 -28 -18 -24 -1 1 6
-3 22 -10 35 -7 12 -9 22 -3 22 5 0 11 -7 15 -15z m66 1 c0 -8 -4 -18 -10 -21
-5 -3 -10 3 -10 14 0 12 5 21 10 21 6 0 10 -6 10 -14z m-622 -78 c2 -41 -1
-57 -11 -61 -8 -3 -14 0 -14 6 1 38 -5 57 -17 57 -12 0 -12 5 1 31 22 43 38
31 41 -33z m-468 41 c0 -5 -4 -7 -10 -4 -5 3 -10 1 -10 -5 0 -6 -5 -8 -11 -4
-8 4 -7 9 2 15 19 12 29 11 29 -2z m-3325 -8 c3 -5 1 -12 -5 -16 -5 -3 -10 1
-10 9 0 18 6 21 15 7z m3010 -1 c-3 -5 -12 -10 -18 -10 -7 0 -6 4 3 10 19 12
23 12 15 0z m-2915 -10 c13 -8 12 -12 -7 -25 -13 -9 -23 -23 -23 -31 0 -8 -7
-17 -15 -20 -8 -4 -15 -12 -15 -20 0 -8 -5 -14 -11 -14 -6 0 -9 3 -7 8 8 15
35 78 41 95 7 19 15 21 37 7z m3244 -31 c-6 -11 -24 -2 -24 11 0 5 7 7 15 4 8
-4 12 -10 9 -15z m1034 2 c3 -8 -1 -12 -9 -9 -7 2 -15 10 -17 17 -3 8 1 12 9
9 7 -2 15 -10 17 -17z m-4343 -1 c3 -5 -8 -24 -24 -42 -22 -24 -33 -30 -41
-22 -8 8 -4 19 15 43 28 32 40 38 50 21z m2795 -30 c0 -5 -5 -10 -11 -10 -5 0
-7 5 -4 10 3 6 8 10 11 10 2 0 4 -4 4 -10z m34 -12 c-3 -4 -9 -8 -15 -8 -5 0
-9 4 -9 8 0 5 7 9 15 9 8 0 12 -4 9 -9z m1048 -18 c0 -11 1 -25 2 -32 1 -6 -5
-13 -13 -16 -9 -3 -12 0 -8 10 3 9 1 20 -5 26 -11 11 -3 32 13 32 5 0 10 -9
11 -20z m-3963 -56 c25 -66 27 -81 6 -64 -8 7 -15 18 -15 25 0 7 -9 24 -21 39
-20 25 -20 56 -1 56 5 0 19 -25 31 -56z m929 -61 c-6 -7 -14 -13 -19 -13 -13
0 -11 24 3 38 16 16 31 -7 16 -25z m-90 -25 c12 -12 17 -70 6 -81 -11 -10 -36
22 -30 38 3 9 0 15 -9 15 -8 0 -15 6 -15 13 0 28 27 36 48 15z m3202 -103 c0
-7 -9 -15 -20 -18 -11 -3 -20 -1 -20 4 0 5 6 9 13 10 10 0 10 2 0 6 -21 8 -15
22 7 16 11 -3 20 -11 20 -18z m-60 -5 c0 -5 -4 -10 -10 -10 -5 0 -10 5 -10 10
0 6 5 10 10 10 6 0 10 -4 10 -10z m-3 -22 c24 -9 33 -18 33 -35 0 -26 -15 -31
-24 -8 -3 8 -16 15 -29 15 -16 0 -23 6 -23 20 0 24 0 23 43 8z m398 -28 c3 -5
-1 -10 -10 -10 -9 0 -13 5 -10 10 3 6 8 10 10 10 2 0 7 -4 10 -10z m85 -38 c0
-4 -14 -9 -31 -10 -19 -2 -28 2 -24 8 7 12 55 14 55 2z m-278 -34 c-8 -8 -9
-4 -5 13 4 13 8 18 11 10 2 -7 -1 -18 -6 -23z m-276 13 c20 17 43 4 37 -20 -3
-12 -10 -21 -15 -21 -6 0 -8 9 -5 20 7 27 -2 25 -12 -2 -5 -13 -5 -28 0 -33 4
-6 4 -17 -1 -25 -10 -15 -20 -10 -24 12 -1 7 -5 19 -9 26 -5 7 -5 22 -1 35 4
13 9 17 12 9 3 -10 7 -10 18 -1z m-872 -17 c3 -8 2 -12 -4 -9 -6 3 -10 10 -10
16 0 14 7 11 14 -7z m-2559 -74 c3 -5 1 -10 -4 -10 -6 0 -11 5 -11 10 0 6 2
10 4 10 3 0 8 -4 11 -10z m3940 0 c3 -5 1 -10 -4 -10 -6 0 -11 5 -11 10 0 6 2
10 4 10 3 0 8 -4 11 -10z m-555 -130 c0 -5 -4 -10 -10 -10 -5 0 -10 5 -10 10
0 6 5 10 10 10 6 0 10 -4 10 -10z m-2830 -115 c14 -19 14 -19 -2 -6 -10 7 -18
18 -18 24 0 6 1 8 3 6 1 -2 9 -13 17 -24z m2863 -74 c-15 -22 -32 -40 -37 -41
-5 0 -2 8 7 18 10 10 17 22 17 26 0 14 34 58 38 48 2 -6 -10 -28 -25 -51z
m-2948 -239 c-1 -1 -13 2 -26 7 -13 5 -18 10 -12 10 9 1 11 15 8 49 l-6 47 19
-55 c10 -30 18 -56 17 -58z m-410 88 c3 -5 1 -10 -4 -10 -6 0 -11 5 -11 10 0
6 2 10 4 10 3 0 8 -4 11 -10z m332 -22 c-7 -18 -18 -33 -24 -33 -28 0 -22 -16
16 -42 22 -15 40 -34 41 -40 0 -20 -14 -16 -43 11 -15 14 -35 27 -46 31 -25 8
-17 37 21 76 39 38 51 37 35 -3z m-411 -3 c17 -16 14 -18 -10 -9 -9 3 -16 10
-16 15 0 13 9 11 26 -6z m-406 -35 c0 -5 -4 -10 -10 -10 -5 0 -10 5 -10 10 0
6 5 10 10 10 6 0 10 -4 10 -10z m710 -20 c0 -5 -9 -14 -20 -20 -22 -12 -23
-10 -14 14 7 17 34 22 34 6z m-83 -15 c1 -5 -13 -20 -33 -33 -28 -18 -39 -21
-50 -11 -19 15 -7 31 18 23 14 -4 18 -2 14 5 -4 6 -4 16 -1 22 8 12 47 8 52
-6z m283 -51 c0 -13 -4 -24 -9 -24 -13 0 -24 37 -16 50 10 16 25 1 25 -26z
m-116 -4 c7 -7 0 -10 -20 -10 -28 0 -54 15 -54 31 0 10 61 -8 74 -21z m1899
-109 c-13 -11 -23 -24 -23 -30 0 -6 -5 -11 -12 -11 -9 0 -9 -3 0 -12 10 -10
15 -10 22 2 14 23 24 3 12 -25 -12 -25 -32 -34 -32 -14 0 5 -4 8 -9 5 -11 -7
-41 3 -41 14 0 5 7 16 16 24 14 15 14 16 -5 16 -12 0 -21 5 -21 10 0 6 15 10
33 10 18 0 42 7 53 15 28 21 33 18 7 -4z m76 -20 c9 -6 10 -14 3 -27 -5 -11
-7 -34 -5 -51 4 -22 1 -33 -7 -33 -7 0 -10 7 -6 15 3 8 1 15 -3 15 -5 0 -7 9
-4 20 3 11 0 27 -7 35 -20 24 1 44 29 26z m62 -31 c27 -15 24 -28 -6 -22 -14
2 -25 11 -25 18 0 17 5 17 31 4z m-236 -86 c-3 -19 -10 -34 -15 -34 -9 0 -4
61 7 90 10 25 16 -17 8 -56z m108 2 c-13 -17 -22 -21 -30 -14 -7 5 -17 7 -23
3 -5 -3 -10 1 -10 10 0 11 6 14 24 9 13 -3 27 -1 30 5 4 6 12 11 17 11 5 0 2
-11 -8 -24z m147 -98 c0 -12 -17 -18 -34 -12 -9 3 -14 9 -12 13 6 9 46 9 46
-1z m1525 -362 c12 3 26 1 29 -4 3 -5 -8 -12 -24 -14 -17 -3 -30 -1 -30 4 0 5
-4 7 -10 3 -5 -3 -6 -13 -3 -23 5 -13 3 -14 -6 -6 -10 9 -10 16 1 33 7 12 14
17 16 11 2 -5 14 -7 27 -4z m-7 -91 c0 -14 -4 -25 -9 -25 -10 0 -11 12 -3 34
9 22 12 20 12 -9z m-18 -119 c0 -11 -19 -15 -25 -6 -3 5 1 10 9 10 9 0 16 -2
16 -4z m-110 -113 c0 -10 3 -28 6 -39 4 -16 -3 -30 -25 -50 -22 -21 -33 -42
-37 -69 -4 -32 -3 -36 5 -17 6 12 15 22 20 22 6 0 8 6 5 13 -4 13 22 45 30 36
1 -2 -2 -44 -7 -93 -7 -61 -7 -101 0 -127 13 -48 6 -54 -33 -28 -16 11 -45 27
-64 35 -31 14 -33 17 -15 23 18 7 16 10 -16 44 -20 21 -43 37 -53 37 -9 0 -16
5 -16 11 0 6 9 8 23 3 32 -10 78 -44 72 -54 -12 -19 26 -17 40 3 14 20 15 20
15 2 0 -17 2 -17 10 -5 15 23 12 36 -10 37 -11 1 -20 -2 -20 -8 0 -18 -15 -8
-28 18 -10 23 -10 29 3 36 8 4 15 16 15 26 0 14 -6 17 -27 13 -26 -4 -27 -3
-10 10 18 13 18 15 2 28 -13 11 -18 11 -24 1 -7 -10 -13 -10 -32 1 -13 7 -25
13 -27 14 -1 1 0 9 4 18 5 12 10 14 19 6 9 -7 16 -6 25 5 11 13 15 13 21 3 7
-10 9 -10 9 0 0 6 7 12 15 12 18 0 20 -16 3 -23 -10 -4 -9 -8 2 -16 12 -8 16
-6 18 8 3 21 56 81 71 81 6 0 11 -8 11 -17z m55 -383 c3 -5 1 -10 -4 -10 -6 0
-11 5 -11 10 0 6 2 10 4 10 3 0 8 -4 11 -10z m87 -64 c-3 -5 -9 -1 -12 10 -4
10 -5 23 -2 28 3 5 9 1 12 -10 4 -10 5 -23 2 -28z"/>
<path d="M2730 4784 c0 -8 5 -12 10 -9 6 3 10 10 10 16 0 5 -4 9 -10 9 -5 0
-10 -7 -10 -16z"/>
<path d="M2830 4782 c0 -5 7 -13 16 -16 22 -8 24 -8 24 6 0 6 -3 8 -7 5 -3 -4
-12 -2 -20 4 -8 7 -13 8 -13 1z"/>
<path d="M2660 4770 c0 -5 5 -10 11 -10 5 0 7 5 4 10 -3 6 -8 10 -11 10 -2 0
-4 -4 -4 -10z"/>
<path d="M4040 4610 c0 -5 5 -10 10 -10 6 0 10 5 10 10 0 6 -4 10 -10 10 -5 0
-10 -4 -10 -10z"/>
<path d="M4398 4415 c2 -14 8 -28 13 -31 10 -6 11 2 3 34 -9 30 -22 28 -16 -3z"/>
<path d="M2228 4453 c7 -3 16 -2 19 1 4 3 -2 6 -13 5 -11 0 -14 -3 -6 -6z"/>
<path d="M2250 4435 c-14 -16 -3 -20 19 -6 8 5 9 11 3 15 -5 3 -15 -1 -22 -9z"/>
<path d="M3395 4139 c1 -10 5 -22 9 -26 9 -10 26 17 20 32 -8 19 -31 14 -29
-6z"/>
<path d="M1364 4238 c3 -13 5 -26 5 -30 1 -5 6 -8 12 -8 7 0 18 -8 25 -17 7
-10 14 -13 14 -6 0 6 -4 15 -10 18 -5 3 -10 15 -10 25 0 11 -9 24 -20 30 -18
9 -19 8 -16 -12z"/>
<path d="M1256 4134 c-9 -8 -14 -20 -10 -25 3 -5 12 -2 20 6 9 8 22 15 30 15
8 0 14 5 14 10 0 16 -37 12 -54 -6z"/>
<path d="M1370 4130 c0 -5 5 -10 11 -10 5 0 7 5 4 10 -3 6 -8 10 -11 10 -2 0
-4 -4 -4 -10z"/>
<path d="M1397 4100 c-8 -31 -7 -36 4 -32 12 3 11 -10 -1 -42 -9 -26 -9 -26
45 -26 61 0 61 -4 -4 67 -16 18 -31 38 -33 45 -3 7 -7 1 -11 -12z"/>
<path d="M1300 4061 c0 -15 -5 -32 -10 -37 -7 -7 -1 -9 20 -6 24 3 29 8 25 22
-3 10 -1 21 5 25 17 11 11 20 -15 21 -21 2 -25 -3 -25 -25z"/>
<path d="M1240 4000 c0 -6 7 -10 15 -10 8 0 15 2 15 4 0 2 -7 6 -15 10 -8 3
-15 1 -15 -4z"/>
<path d="M1285 3970 c-3 -5 -1 -10 5 -10 6 0 8 -5 5 -10 -4 -6 -11 -8 -16 -5
-5 4 -9 1 -9 -4 0 -14 6 -14 30 -1 11 6 17 17 14 25 -7 17 -20 19 -29 5z"/>
<path d="M245 3830 c-3 -11 -2 -28 4 -37 11 -18 11 -17 15 30 2 31 -10 36 -19
7z"/>
<path d="M4810 4040 c0 -5 7 -10 16 -10 8 0 12 5 9 10 -3 6 -10 10 -16 10 -5
0 -9 -4 -9 -10z"/>
<path d="M4727 1603 c-4 -3 -7 -11 -7 -17 0 -6 5 -5 12 2 6 6 9 14 7 17 -3 3
-9 2 -12 -2z"/>
<path d="M4710 1345 c0 -8 2 -15 4 -15 2 0 6 7 10 15 3 8 1 15 -4 15 -6 0 -10
-7 -10 -15z"/>
<path d="M1395 4980 c15 -16 20 -17 29 -6 6 8 18 16 26 19 8 3 -5 6 -29 6 -43
1 -44 1 -26 -19z"/>
<path d="M2728 4993 c6 -2 18 -2 25 0 6 3 1 5 -13 5 -14 0 -19 -2 -12 -5z"/>
<path d="M3831 4982 c15 -9 35 -27 45 -40 11 -12 30 -24 43 -27 24 -4 101 31
101 47 0 11 -63 -3 -73 -16 -5 -6 -5 -1 -2 11 8 28 -24 43 -93 43 l-47 0 26
-18z"/>
<path d="M4444 4985 c21 -16 84 -13 114 5 12 7 -5 9 -58 9 -68 0 -73 -1 -56
-14z"/>
<path d="M4647 4993 c-10 -10 -8 -23 4 -23 5 0 7 5 4 10 -10 16 31 11 45 -5
10 -12 16 -13 27 -3 12 10 13 7 8 -14 -4 -15 -2 -29 4 -32 6 -4 11 -2 11 3 0
6 9 11 21 11 12 0 17 4 14 11 -4 6 2 5 13 -2 17 -11 18 -15 6 -26 -20 -20 -18
-25 16 -53 17 -14 32 -35 33 -47 0 -12 5 -19 9 -17 4 3 8 -4 8 -15 0 -13 6
-21 18 -21 14 0 14 2 3 9 -19 12 -6 42 14 35 11 -5 18 0 22 15 4 16 12 20 37
18 l31 -2 3 78 3 77 -174 0 c-95 0 -177 -3 -180 -7z m340 -118 c-7 -16 -37
-21 -37 -5 0 5 7 7 15 4 10 -4 15 0 15 12 0 9 3 15 6 11 4 -3 4 -13 1 -22z
m-111 -26 c19 -22 19 -22 -3 -10 -13 6 -23 16 -23 21 0 15 5 12 26 -11z"/>
<path d="M4318 4983 c-16 -4 -16 -7 -3 -26 13 -20 15 -26 15 -43 0 -4 7 -1 15
6 18 15 20 70 3 69 -7 -1 -21 -3 -30 -6z"/>
<path d="M3680 4976 c0 -2 7 -6 15 -10 8 -3 15 -1 15 4 0 6 -7 10 -15 10 -8 0
-15 -2 -15 -4z"/>
<path d="M4040 4980 c-8 -26 -7 -41 2 -32 6 6 8 16 5 24 -3 7 -6 11 -7 8z"/>
<path d="M1458 4958 c14 -7 26 -8 32 -2 5 5 -4 10 -23 11 -30 1 -31 1 -9 -9z"/>
<path d="M427 4944 c-8 -8 3 -34 14 -34 11 0 12 27 0 34 -4 3 -11 3 -14 0z"/>
<path d="M4060 4929 c0 -5 5 -7 10 -4 6 3 10 8 10 11 0 2 -4 4 -10 4 -5 0 -10
-5 -10 -11z"/>
<path d="M359 4853 c-5 -16 -12 -34 -14 -40 -2 -7 0 -13 4 -13 5 0 16 -3 25
-6 13 -5 16 1 16 25 0 17 4 31 8 31 5 0 9 7 9 15 0 26 -37 17 -48 -12z"/>
<path d="M4650 4870 c0 -5 5 -10 11 -10 5 0 7 5 4 10 -3 6 -8 10 -11 10 -2 0
-4 -4 -4 -10z"/>
<path d="M318 4843 c7 -3 16 -2 19 1 4 3 -2 6 -13 5 -11 0 -14 -3 -6 -6z"/>
<path d="M428 4833 c7 -3 16 -2 19 1 4 3 -2 6 -13 5 -11 0 -14 -3 -6 -6z"/>
<path d="M4955 4820 c-7 -12 12 -40 27 -40 16 0 21 32 7 41 -18 12 -26 11 -34
-1z"/>
<path d="M4680 4791 c0 -5 -10 -7 -22 -4 -21 4 -21 3 -5 -7 10 -6 25 -9 33 -6
16 6 19 26 4 26 -5 0 -10 -4 -10 -9z"/>
<path d="M565 4760 c-3 -5 -1 -10 4 -10 6 0 11 5 11 10 0 6 -2 10 -4 10 -3 0
-8 -4 -11 -10z"/>
<path d="M4750 4751 c0 -6 4 -13 10 -16 6 -3 7 1 4 9 -7 18 -14 21 -14 7z"/>
<path d="M414 4726 c-26 -9 -29 -13 -18 -24 12 -11 19 -10 40 7 30 24 20 31
-22 17z"/>
<path d="M5 4680 c-5 -9 -4 -15 3 -18 6 -2 14 -19 18 -38 4 -20 15 -39 27 -45
19 -11 20 -9 13 31 -8 51 -13 60 -31 60 -7 0 -15 5 -17 12 -3 9 -7 8 -13 -2z"/>
<path d="M647 4653 c-11 -10 -8 -33 4 -33 5 0 7 5 3 12 -5 7 -2 9 9 5 11 -4
14 -2 10 9 -6 15 -16 18 -26 7z"/>
<path d="M166 4635 c-3 -8 -1 -15 4 -15 6 0 10 7 10 15 0 8 -2 15 -4 15 -2 0
-6 -7 -10 -15z"/>
<path d="M220 4625 c7 -8 18 -15 26 -15 7 0 20 -10 29 -22 l15 -23 -2 28 c-1
15 -8 28 -15 28 -27 3 -32 4 -39 12 -14 14 -26 7 -14 -8z"/>
<path d="M3 4544 c-1 -35 1 -44 10 -35 6 6 19 11 29 11 10 0 18 3 18 8 0 11
-20 38 -20 27 0 -5 -8 0 -18 12 -17 23 -17 23 -19 -23z"/>
<path d="M405 4582 c-11 -11 -4 -22 15 -22 11 0 28 -9 37 -20 13 -14 19 -16
25 -7 13 20 9 40 -7 33 -8 -3 -15 -2 -15 3 0 10 -47 21 -55 13z"/>
<path d="M4624 4579 c-11 -18 11 -32 25 -16 9 12 8 16 -3 20 -9 4 -18 1 -22
-4z"/>
<path d="M360 4516 c0 -15 18 -31 26 -23 7 7 -7 37 -17 37 -5 0 -9 -6 -9 -14z"/>
<path d="M4915 4520 c-16 -5 -58 -14 -93 -21 -34 -6 -60 -14 -58 -16 8 -9 67
-9 72 -1 3 4 15 7 27 7 12 -1 33 2 47 6 14 4 33 8 43 8 9 1 17 7 17 14 0 14
-11 15 -55 3z"/>
<path d="M246 4507 c-18 -13 -18 -14 -2 -20 22 -9 36 -1 36 19 0 18 -11 18
-34 1z"/>
<path d="M165 4500 c-3 -5 -2 -10 4 -10 5 0 13 5 16 10 3 6 2 10 -4 10 -5 0
-13 -4 -16 -10z"/>
<path d="M312 4488 c-7 -7 -12 -16 -12 -20 0 -15 15 -8 28 12 13 22 3 27 -16
8z"/>
<path d="M4640 4486 c0 -2 7 -7 16 -10 8 -3 12 -2 9 4 -6 10 -25 14 -25 6z"/>
<path d="M105 4470 c4 -6 11 -8 16 -5 14 9 11 15 -7 15 -8 0 -12 -5 -9 -10z"/>
<path d="M433 4455 c-23 -12 -21 -25 3 -25 10 0 29 30 22 35 -2 1 -13 -4 -25
-10z"/>
<path d="M4607 4438 c-3 -18 -3 -49 1 -69 7 -35 8 -35 36 -24 l29 12 -31 18
c-26 16 -29 21 -19 39 7 12 16 24 21 27 11 9 -2 29 -18 29 -8 0 -16 -15 -19
-32z"/>
<path d="M4712 4396 c7 -8 17 -12 22 -9 4 3 2 9 -5 14 -22 13 -31 11 -17 -5z"/>
<path d="M4620 4292 c5 -9 11 -29 14 -44 4 -15 20 -36 36 -48 l30 -21 -5 38
c-9 56 -13 66 -30 59 -9 -3 -18 1 -21 8 -3 8 -12 17 -20 20 -10 4 -11 1 -4
-12z"/>
<path d="M95 4207 c-4 -10 -3 -28 2 -40 6 -12 15 -33 21 -47 9 -22 11 -23 17
-7 4 9 1 32 -8 50 -8 17 -17 39 -20 47 -4 12 -6 12 -12 -3z"/>
<path d="M185 4154 c-5 -16 -8 -45 -7 -64 2 -29 1 -32 -8 -17 -18 29 -30 19
-30 -24 l0 -41 24 16 c18 11 26 12 29 3 3 -8 12 -3 25 13 12 14 21 19 22 13 0
-19 17 -16 24 5 3 9 9 24 13 32 5 13 4 13 -11 1 -20 -16 -17 -19 -48 43 l-25
49 -8 -29z"/>
<path d="M4947 4113 c-12 -12 -7 -20 18 -31 21 -10 27 -9 32 3 3 9 3 19 -1 22
-3 4 -6 1 -6 -5 0 -7 -4 -12 -10 -12 -5 0 -10 7 -10 15 0 16 -12 20 -23 8z"/>
<path d="M4975 4050 c-3 -5 -1 -10 4 -10 6 0 11 5 11 10 0 6 -2 10 -4 10 -3 0
-8 -4 -11 -10z"/>
<path d="M10 3836 c0 -8 5 -18 10 -21 6 -3 10 -18 11 -33 0 -27 0 -27 10 -4
11 30 1 72 -17 72 -8 0 -14 -6 -14 -14z"/>
<path d="M118 3763 c-3 -14 -1 -27 8 -34 8 -6 11 -15 8 -20 -3 -5 0 -9 5 -9 6
0 11 7 11 15 0 8 -4 15 -9 15 -5 0 -11 12 -13 28 -3 25 -4 25 -10 5z"/>
<path d="M3520 3765 c-14 -16 -3 -20 19 -6 8 5 9 11 3 15 -5 3 -15 -1 -22 -9z"/>
<path d="M3603 3753 c9 -2 23 -2 30 0 6 3 -1 5 -18 5 -16 0 -22 -2 -12 -5z"/>
<path d="M28 3678 c-4 -24 -2 -28 16 -27 29 1 50 12 54 27 2 10 -2 10 -17 2
-28 -14 -39 -13 -43 8 -3 12 -6 9 -10 -10z"/>
<path d="M3941 3657 c-16 -16 -14 -27 4 -21 8 4 15 2 15 -4 0 -14 -22 -21 -40
-12 -27 14 -120 23 -120 12 0 -15 56 -30 114 -31 27 -1 55 -6 62 -12 9 -7 19
-7 33 1 18 9 21 8 21 -10 0 -12 7 -20 18 -21 9 0 35 -2 57 -4 59 -5 138 25
182 69 30 30 32 35 11 21 -27 -16 -28 -16 -28 0 0 15 -4 13 -25 -9 -13 -14
-31 -26 -40 -26 -8 0 -23 -9 -32 -20 -10 -11 -24 -20 -33 -19 -10 0 -9 3 5 9
15 7 8 9 -28 8 -44 -2 -50 1 -68 29 -17 27 -37 38 -86 49 -6 1 -16 -3 -22 -9z"/>
<path d="M3483 3632 c-18 -9 -33 -19 -33 -24 0 -15 60 -9 66 7 11 27 -1 33
-33 17z"/>
<path d="M3325 3615 c-29 -13 -29 -13 -5 -14 34 -1 70 9 70 20 0 13 -30 10
-65 -6z"/>
<path d="M315 3580 c-4 -6 -11 -8 -16 -4 -5 3 -16 1 -23 -5 -7 -6 -22 -9 -34
-6 -12 2 -22 -1 -22 -7 0 -6 -6 -6 -15 2 -15 13 -30 7 -30 -11 0 -10 -8 -11
-29 -3 -8 3 -24 0 -36 -6 -11 -6 -28 -9 -38 -6 -9 3 -24 1 -32 -5 -13 -10 -13
-10 1 -6 9 3 22 2 29 -3 17 -10 4 -31 -15 -23 -10 3 -15 -1 -15 -15 0 -23 -15
-37 -24 -23 -4 5 -1 12 4 14 6 3 5 4 -2 3 -7 -2 -13 -14 -13 -27 0 -23 3 -24
83 -26 48 -2 82 1 82 7 0 6 11 10 24 10 14 0 28 5 31 10 3 6 15 10 26 10 10 0
19 -4 19 -10 0 -5 5 -10 11 -10 5 0 7 5 4 10 -4 7 3 8 20 4 18 -4 30 -2 36 7
6 11 11 11 21 1 6 -6 24 -12 39 -12 15 0 34 -6 41 -14 8 -7 33 -13 58 -12 37
1 45 -2 45 -17 0 -10 10 -26 21 -35 12 -9 24 -25 27 -34 9 -25 43 -23 50 3 5
20 9 18 46 -22 48 -52 64 -45 31 14 -29 53 -57 76 -92 77 -33 0 -44 15 -21 29
22 12 12 22 -37 41 -43 17 -82 45 -73 54 3 3 0 6 -8 6 -9 0 -40 12 -69 26 -43
21 -58 24 -72 15 -22 -14 -31 -14 -23 -1 3 6 4 10 1 10 -3 0 -8 -5 -11 -10z
m205 -90 c0 -5 -5 -10 -11 -10 -5 0 -7 5 -4 10 3 6 8 10 11 10 2 0 4 -4 4 -10z"/>
<path d="M130 3571 c0 -5 7 -12 16 -15 8 -3 13 -2 9 3 -3 5 1 12 7 14 7 3 3 6
-9 6 -13 1 -23 -3 -23 -8z"/>
<path d="M4947 3553 c-6 -11 9 -49 22 -58 6 -3 11 -1 11 4 0 6 -5 11 -11 11
-6 0 -8 8 -4 19 6 19 -9 39 -18 24z"/>
<path d="M4170 3514 c-47 -13 -48 -14 -15 -19 11 -1 28 -6 38 -10 12 -5 17 -3
15 6 -2 8 3 13 10 12 6 -2 12 4 12 12 0 17 1 17 -60 -1z"/>
<path d="M4160 3465 c14 -17 50 -20 50 -5 0 5 -6 7 -14 4 -8 -3 -17 -1 -21 5
-3 6 -11 11 -17 11 -7 0 -6 -6 2 -15z"/>
<path d="M4985 3470 c3 -5 8 -10 11 -10 2 0 4 5 4 10 0 6 -5 10 -11 10 -5 0
-7 -4 -4 -10z"/>
<path d="M3691 3433 c-17 -7 -61 -56 -55 -62 7 -7 55 30 49 39 -3 4 7 13 22
18 16 6 21 10 13 10 -8 0 -21 -2 -29 -5z"/>
<path d="M3813 3433 c9 -2 25 -2 35 0 9 3 1 5 -18 5 -19 0 -27 -2 -17 -5z"/>
<path d="M3875 3430 c-3 -5 1 -10 10 -10 9 0 13 5 10 10 -3 6 -8 10 -10 10 -2
0 -7 -4 -10 -10z"/>
<path d="M3693 3380 c-71 -35 -92 -58 -87 -100 3 -23 -2 -34 -22 -46 -14 -10
-39 -37 -55 -61 -25 -36 -27 -43 -13 -43 10 0 27 8 38 18 12 10 39 24 61 31
22 8 56 24 76 37 83 52 192 105 206 100 9 -4 13 -1 10 6 -2 7 0 23 4 36 l9 22
-38 -21 c-49 -27 -97 -56 -157 -97 -27 -18 -54 -31 -60 -28 -7 2 -16 -4 -22
-14 -11 -17 -53 -34 -53 -22 0 12 55 55 95 74 22 11 56 31 75 44 19 14 47 28
63 31 29 6 37 23 10 23 -22 0 -100 -37 -139 -67 -35 -26 -49 -28 -68 -11 -14
13 -3 21 92 70 37 19 44 20 52 8 7 -12 10 -11 16 5 4 11 9 23 11 28 10 17 -47
5 -104 -23z"/>
<path d="M410 3390 c0 -5 9 -10 21 -10 11 0 17 5 14 10 -3 6 -13 10 -21 10 -8
0 -14 -4 -14 -10z"/>
<path d="M345 3330 c3 -5 17 -10 31 -10 14 0 22 4 19 10 -3 6 -17 10 -31 10
-14 0 -22 -4 -19 -10z"/>
<path d="M4474 3329 c-3 -5 -1 -16 5 -22 5 -7 7 -24 4 -37 -5 -17 -3 -21 6
-15 7 4 11 18 8 31 -2 13 0 24 4 24 15 0 10 17 -6 23 -8 4 -17 2 -21 -4z"/>
<path d="M4540 3330 c0 -6 7 -10 15 -10 8 0 15 2 15 4 0 2 -7 6 -15 10 -8 3
-15 1 -15 -4z"/>
<path d="M3651 3306 c-10 -12 -8 -13 8 -9 12 3 21 9 21 14 0 14 -16 11 -29 -5z"/>
<path d="M3527 3256 c-26 -24 -47 -52 -47 -61 0 -24 35 -14 35 10 1 27 14 47
28 42 14 -4 30 11 40 36 11 28 -7 20 -56 -27z"/>
<path d="M4540 3291 c-24 -6 -31 -24 -19 -46 3 -5 5 -17 4 -25 -1 -8 -3 -26
-4 -40 -1 -16 -10 -29 -26 -37 -23 -10 -27 -8 -42 18 -24 41 -33 36 -17 -8 7
-21 13 -57 14 -80 0 -24 4 -43 9 -43 4 0 11 -18 14 -41 3 -22 13 -49 21 -58 9
-10 14 -25 10 -34 -7 -19 -4 -20 75 -34 44 -8 51 -8 38 2 -22 16 -21 22 2 34
14 8 25 6 43 -8 21 -17 26 -17 43 -5 10 8 27 12 36 9 10 -3 20 -1 24 5 3 6 11
8 16 5 5 -4 9 8 9 25 0 34 -17 73 -28 66 -4 -2 -8 8 -8 22 -1 15 -5 37 -9 50
-6 18 -4 22 14 22 24 0 28 22 6 40 -8 6 -14 15 -12 18 3 13 -35 62 -45 56 -5
-3 -16 0 -25 8 -13 10 -17 10 -20 1 -3 -7 -9 -13 -14 -13 -6 0 -7 5 -3 11 4 7
0 9 -14 5 -23 -8 -86 42 -64 51 6 2 12 11 12 19 0 15 -1 15 -40 5z m54 -97 c5
-14 4 -15 -9 -4 -17 14 -19 20 -6 20 5 0 12 -7 15 -16z m115 -23 c21 -14 -10
-42 -38 -34 -26 7 -27 19 -3 32 21 13 24 13 41 2z m31 -121 c11 -21 4 -30 -26
-30 -22 0 -50 31 -38 42 12 12 55 4 64 -12z"/>
<path d="M750 3281 c0 -5 7 -12 16 -15 14 -5 15 -4 4 9 -14 17 -20 19 -20 6z"/>
<path d="M4590 3266 c0 -9 5 -16 10 -16 6 0 10 4 10 9 0 6 -4 13 -10 16 -5 3
-10 -1 -10 -9z"/>
<path d="M4480 3220 c0 -13 5 -18 15 -14 12 5 13 10 4 20 -15 19 -19 18 -19
-6z"/>
<path d="M4108 3223 c-25 -6 -22 -30 3 -44 20 -10 21 -9 16 10 -3 12 -1 19 4
15 5 -3 9 -1 9 5 0 13 -12 18 -32 14z"/>
<path d="M3886 3195 c-3 -13 -12 -22 -19 -20 -6 2 -28 -9 -47 -25 -28 -25 -34
-37 -36 -72 -1 -57 -11 -81 -36 -97 -19 -12 -20 -11 -15 8 3 12 2 21 -3 21
-21 0 -16 -42 9 -74 28 -38 47 -41 44 -7 -3 21 -2 21 23 5 25 -17 26 -16 54
14 16 18 33 32 38 32 17 0 33 -27 26 -44 -3 -9 -1 -16 5 -16 6 0 11 5 11 11 0
5 4 8 9 5 4 -3 8 9 7 27 -1 22 -11 42 -33 64 -18 17 -33 38 -33 45 0 7 -10 22
-22 33 l-23 19 29 7 c16 5 34 5 40 2 6 -4 3 2 -6 13 -12 13 -14 24 -8 34 12
19 13 40 1 40 -5 0 -12 -11 -15 -25z m-29 -221 c-3 -3 -12 -4 -19 -1 -8 3 -5
6 6 6 11 1 17 -2 13 -5z"/>
<path d="M1 3058 c0 -57 5 -107 9 -113 5 -5 5 -29 1 -52 -7 -33 -4 -49 10 -72
11 -18 14 -33 9 -36 -6 -4 -10 -1 -10 4 0 6 -4 11 -10 11 -13 0 -13 -31 1 -67
8 -22 12 -24 19 -13 6 8 10 27 10 43 0 15 5 27 11 27 6 0 8 9 4 23 -15 49 15
-1 40 -66 19 -52 23 -72 15 -87 -12 -23 -22 -27 -14 -7 3 8 -3 20 -12 28 -15
12 -17 12 -12 -1 6 -15 -22 -75 -54 -119 -24 -31 -23 -58 2 -66 11 -4 18 -11
15 -16 -4 -5 -1 -9 6 -9 13 0 49 -38 49 -52 0 -5 11 -13 25 -18 14 -5 25 -14
25 -19 0 -6 7 -8 15 -5 13 5 13 10 -2 35 -16 27 -16 30 0 46 15 16 17 15 26
-8 9 -21 10 -19 10 18 1 23 -4 45 -9 48 -6 4 -8 11 -5 16 3 5 -4 30 -16 56
-12 27 -23 62 -25 78 -10 77 -10 136 -2 141 5 3 8 0 7 -7 -1 -8 2 -25 8 -39 6
-14 11 -49 12 -79 1 -29 8 -65 16 -80 l14 -26 2 25 c1 14 7 -2 14 -35 7 -33
14 -53 15 -45 2 8 6 -3 9 -25 4 -22 3 -46 -3 -53 -5 -7 -6 -16 -2 -20 4 -4 13
1 20 10 17 24 11 125 -10 145 -8 9 -14 27 -12 42 2 17 -2 25 -11 23 -8 -2 -6
7 7 25 17 24 18 30 6 41 -8 7 -14 25 -14 40 l0 26 16 -22 c8 -12 13 -26 10
-31 -4 -5 -2 -11 3 -13 13 -5 24 -48 12 -48 -6 0 -11 -4 -11 -9 0 -4 18 -11
41 -14 22 -3 59 -18 82 -33 23 -15 39 -23 35 -19 -4 5 -3 14 3 21 6 8 8 22 4
31 -7 16 -13 49 -15 78 -1 15 6 57 14 82 8 25 -25 147 -48 178 -15 19 -15 19
-16 -11 0 -30 -20 -51 -34 -37 -10 10 -7 23 5 20 6 -1 14 4 16 11 3 6 -3 12
-11 12 -12 0 -15 7 -12 26 7 35 -2 54 -31 65 -13 5 -27 19 -32 31 -5 14 -10
18 -15 9 -5 -8 -12 -6 -24 8 -16 18 -19 18 -72 1 -30 -10 -47 -18 -38 -19 19
-1 21 -41 2 -41 -19 0 -25 -29 -10 -53 26 -40 41 -106 27 -120 -17 -17 -31 8
-31 54 0 19 -8 53 -19 75 -10 21 -21 58 -25 82 -5 35 -4 42 11 42 22 0 6 15
-25 25 l-23 7 2 -104z m106 -34 c-3 -3 -12 -4 -19 -1 -8 3 -5 6 6 6 11 1 17
-2 13 -5z m-49 -89 c14 -31 16 -65 3 -65 -15 0 -24 20 -25 57 -1 40 7 42 22 8z
m302 -101 c0 -2 -7 -4 -15 -4 -8 0 -15 4 -15 10 0 5 7 7 15 4 8 -4 15 -8 15
-10z m17 -66 c-3 -8 -6 -5 -6 6 -1 11 2 17 5 13 3 -3 4 -12 1 -19z m-77 -12
c0 -2 -7 -6 -15 -10 -8 -3 -15 -1 -15 4 0 6 7 10 15 10 8 0 15 -2 15 -4z m30
-80 c0 -6 -5 -4 -10 4 -6 9 -10 10 -10 3 0 -16 21 -28 43 -25 9 2 17 -1 17 -6
0 -12 -61 -5 -74 8 -7 7 -6 14 1 21 6 6 9 19 6 28 -3 12 -1 11 11 -3 9 -11 16
-25 16 -30z"/>
<path d="M266 3124 c-17 -17 -20 -27 -9 -37 11 -11 32 13 27 31 -5 14 -2 13
10 -2 16 -19 16 -19 16 2 0 26 -22 29 -44 6z"/>
<path d="M3988 3129 c-10 -5 -20 -25 -24 -44 -3 -19 -10 -32 -15 -29 -5 3 -9
0 -9 -6 0 -6 8 -10 18 -8 10 2 16 11 14 23 -2 10 6 26 18 35 27 20 24 44 -2
29z"/>
<path d="M4780 3050 c0 -5 7 -10 15 -10 8 0 15 5 15 10 0 6 -7 10 -15 10 -8 0
-15 -4 -15 -10z"/>
<path d="M3551 2990 c-41 -35 -36 -54 18 -68 44 -11 51 -7 25 13 -14 10 -15
15 -4 35 10 18 9 24 0 30 -9 6 -8 9 6 13 11 3 13 5 4 5 -8 1 -30 -12 -49 -28z"/>
<path d="M4800 2990 c0 -7 24 -20 36 -20 13 0 1 19 -16 23 -11 3 -20 2 -20 -3z"/>
<path d="M3391 2973 c7 -10 15 -20 16 -22 2 -2 3 5 3 17 0 14 -6 22 -16 22
-14 0 -15 -3 -3 -17z"/>
<path d="M3600 2960 c-12 -23 2 -27 19 -6 8 9 8 16 2 20 -6 4 -15 -3 -21 -14z"/>
<path d="M404 2924 c3 -9 6 -21 7 -27 0 -7 4 -3 9 8 13 29 12 35 -6 35 -11 0
-14 -5 -10 -16z"/>
<path d="M1265 2890 c3 -5 11 -10 16 -10 6 0 7 5 4 10 -3 6 -11 10 -16 10 -6
0 -7 -4 -4 -10z"/>
<path d="M3830 2890 c0 -5 5 -10 11 -10 5 0 7 5 4 10 -3 6 -8 10 -11 10 -2 0
-4 -4 -4 -10z"/>
<path d="M4835 2829 c-4 -6 -13 -8 -20 -5 -7 2 -16 -2 -19 -10 -4 -11 0 -13
18 -8 15 4 27 1 33 -8 11 -20 43 -31 43 -15 -1 13 -34 57 -44 57 -2 0 -8 -5
-11 -11z"/>
<path d="M3845 2786 c10 -14 22 -26 27 -26 13 0 -15 43 -31 48 -9 3 -7 -5 4
-22z"/>
<path d="M4483 2783 c-7 -3 -13 -9 -13 -14 0 -6 5 -7 12 -3 8 5 9 2 5 -9 -3
-10 -2 -17 2 -17 12 0 23 32 14 40 -4 4 -14 5 -20 3z"/>
<path d="M4985 2780 c3 -5 8 -10 11 -10 2 0 4 5 4 10 0 6 -5 10 -11 10 -5 0
-7 -4 -4 -10z"/>
<path d="M3900 2766 c0 -3 5 -17 11 -33 8 -21 12 -24 19 -13 9 15 -5 50 -20
50 -6 0 -10 -2 -10 -4z"/>
<path d="M4414 2735 c8 -17 17 -38 20 -48 6 -17 7 -17 30 0 27 21 24 43 -7 43
-11 0 -29 8 -40 17 -18 17 -18 17 -3 -12z"/>
<path d="M3430 2719 c0 -11 25 -22 39 -17 6 1 -1 8 -14 15 -14 6 -25 7 -25 2z"/>
<path d="M4840 2711 c0 -6 5 -13 10 -16 6 -3 10 1 10 9 0 9 -4 16 -10 16 -5 0
-10 -4 -10 -9z"/>
<path d="M4945 2700 c10 -11 20 -20 23 -20 3 0 -3 9 -13 20 -10 11 -20 20 -23
20 -3 0 3 -9 13 -20z"/>
<path d="M4985 2710 c-3 -5 -1 -10 4 -10 6 0 11 5 11 10 0 6 -2 10 -4 10 -3 0
-8 -4 -11 -10z"/>
<path d="M4022 2690 c29 -15 43 -18 63 -10 14 5 25 12 25 14 0 3 -7 3 -15 0
-8 -4 -15 -1 -15 5 0 6 -19 11 -47 11 l-48 0 37 -20z"/>
<path d="M0 2670 c0 -18 4 -29 10 -25 6 3 10 15 10 25 0 10 -4 22 -10 25 -6 4
-10 -7 -10 -25z"/>
<path d="M3936 2685 c4 -8 10 -12 15 -9 11 6 2 24 -11 24 -5 0 -7 -7 -4 -15z"/>
<path d="M4136 2651 c-8 -13 14 -28 54 -35 28 -5 31 -5 18 4 -10 6 -18 18 -18
25 0 16 -45 21 -54 6z"/>
<path d="M3930 2640 c0 -5 5 -10 11 -10 5 0 7 5 4 10 -3 6 -8 10 -11 10 -2 0
-4 -4 -4 -10z"/>
<path d="M4208 2643 c7 -3 16 -2 19 1 4 3 -2 6 -13 5 -11 0 -14 -3 -6 -6z"/>
<path d="M3951 2596 c-12 -12 -21 -28 -21 -34 0 -13 5 -12 113 14 32 8 68 14
80 14 21 0 21 0 -2 16 -19 14 -27 14 -46 4 -18 -9 -34 -10 -64 -3 -35 9 -42 8
-60 -11z"/>
<path d="M3427 2583 c-14 -13 -6 -23 18 -23 28 0 34 15 9 24 -19 7 -19 7 -27
-1z"/>
<path d="M3823 2538 c-2 -22 30 -24 70 -5 39 18 33 23 -21 23 -38 -1 -48 -5
-49 -18z"/>
<path d="M4683 2525 c-18 -25 -25 -27 -86 -27 -36 0 -71 3 -76 7 -7 3 -8 0 -5
-9 4 -11 0 -13 -15 -9 -16 4 -20 2 -15 -10 3 -10 24 -19 50 -23 50 -7 54 -15
22 -40 -14 -10 -17 -14 -6 -11 9 3 27 -2 40 -12 19 -14 35 -16 98 -11 82 7 96
5 81 -14 -6 -7 -8 -16 -4 -19 10 -11 51 -8 58 3 4 6 12 7 18 4 7 -4 9 -4 5 1
-4 4 -3 15 2 25 8 14 5 16 -16 12 -17 -3 -30 2 -45 19 -16 19 -37 26 -97 35
-74 10 -76 11 -47 23 16 7 40 10 52 8 13 -2 23 0 23 4 0 11 58 0 95 -19 17 -8
37 -18 46 -23 12 -6 18 -3 22 12 3 10 10 19 16 19 6 0 8 -7 5 -15 -8 -19 10
-20 25 -1 17 20 -28 30 -50 10 -15 -13 -17 -13 -23 1 -3 9 -4 21 0 26 3 5 0 9
-5 9 -6 0 -11 -4 -11 -10 0 -18 -29 -10 -35 10 -3 11 -15 25 -26 31 -19 10
-20 9 -9 -11 11 -21 11 -21 -22 -4 -18 9 -36 21 -39 26 -3 5 -15 -3 -26 -17z"/>
<path d="M3430 2515 c0 -9 9 -15 23 -15 31 0 40 -10 24 -28 -10 -13 -9 -14 3
-10 8 3 30 1 48 -4 24 -7 36 -5 47 6 20 19 19 26 -2 26 -10 0 -29 9 -43 20
-31 24 -100 28 -100 5z"/>
<path d="M3755 2510 c-3 -5 -2 -10 4 -10 5 0 13 5 16 10 3 6 2 10 -4 10 -5 0
-13 -4 -16 -10z"/>
<path d="M3606 2495 c-3 -8 -2 -15 3 -15 5 0 14 7 21 15 10 12 10 15 -3 15 -8
0 -17 -7 -21 -15z"/>
<path d="M4268 2493 c6 -2 18 -2 25 0 6 3 1 5 -13 5 -14 0 -19 -2 -12 -5z"/>
<path d="M3730 2472 c0 -11 6 -25 14 -31 12 -10 17 -8 25 8 14 25 14 34 1 26
-6 -4 -17 -1 -25 5 -12 10 -15 9 -15 -8z"/>
<path d="M3683 2459 c-6 -6 -30 -10 -53 -11 -45 0 -38 -11 16 -21 23 -4 33 -1
43 15 14 22 10 33 -6 17z"/>
<path d="M1118 2423 c6 -2 18 -2 25 0 6 3 1 5 -13 5 -14 0 -19 -2 -12 -5z"/>
<path d="M1190 2420 c20 -13 40 -13 40 0 0 6 -12 10 -27 10 -22 0 -25 -2 -13
-10z"/>
<path d="M4218 2423 c12 -2 30 -2 40 0 9 3 -1 5 -23 4 -22 0 -30 -2 -17 -4z"/>
<path d="M4300 2426 c0 -2 11 -6 25 -8 14 -3 25 -1 25 3 0 5 -11 9 -25 9 -14
0 -25 -2 -25 -4z"/>
<path d="M4520 2415 c0 -8 2 -15 4 -15 2 0 6 7 10 15 3 8 1 15 -4 15 -6 0 -10
-7 -10 -15z"/>
<path d="M1280 2410 c0 -5 5 -10 11 -10 5 0 7 5 4 10 -3 6 -8 10 -11 10 -2 0
-4 -4 -4 -10z"/>
<path d="M4118 2413 c7 -3 16 -2 19 1 4 3 -2 6 -13 5 -11 0 -14 -3 -6 -6z"/>
<path d="M4438 2413 c6 -2 18 -2 25 0 6 3 1 5 -13 5 -14 0 -19 -2 -12 -5z"/>
<path d="M4988 2388 c-4 -10 -14 -18 -22 -18 -8 0 -17 -4 -20 -9 -4 -5 3 -7
14 -4 16 4 20 1 19 -18 0 -13 3 -37 6 -54 4 -16 3 -25 -2 -19 -4 6 -16 13 -25
17 -21 7 -24 27 -5 27 8 0 7 3 -3 10 -25 15 -31 -4 -16 -48 11 -31 12 -42 3
-46 -7 -2 -1 -5 13 -5 46 -1 51 9 48 100 -2 46 -6 76 -10 67z m-18 -128 c0 -5
-5 -10 -11 -10 -5 0 -7 5 -4 10 3 6 8 10 11 10 2 0 4 -4 4 -10z"/>
<path d="M4885 2363 c6 -4 10 -15 10 -23 0 -8 7 -15 15 -15 8 0 15 9 15 20 0
14 -8 21 -25 23 -14 2 -20 -1 -15 -5z"/>
<path d="M212 2352 c-13 -2 -22 -8 -20 -14 5 -15 67 -16 72 -1 5 13 -19 20
-52 15z"/>
<path d="M4735 2340 c-3 -5 -1 -10 4 -10 6 0 11 5 11 10 0 6 -2 10 -4 10 -3 0
-8 -4 -11 -10z"/>
<path d="M4855 2270 c-3 -5 -2 -10 4 -10 5 0 18 -3 28 -7 17 -6 17 -6 1 10
-19 20 -24 21 -33 7z"/>
<path d="M1625 2220 c3 -5 8 -10 11 -10 2 0 4 5 4 10 0 6 -5 10 -11 10 -5 0
-7 -4 -4 -10z"/>
<path d="M93 2213 c-12 -2 -27 -11 -33 -19 -7 -8 -17 -14 -22 -14 -30 0 -38
-30 -36 -144 l1 -115 20 26 c19 24 21 25 27 7 8 -20 3 -44 -8 -42 -34 4 -42
-4 -42 -39 0 -36 0 -36 18 -15 10 11 27 20 37 19 16 -2 21 5 23 32 4 40 -25
111 -45 111 -7 0 -13 6 -14 13 0 6 -2 27 -3 45 -3 29 -2 31 13 20 20 -16 36
-40 36 -54 0 -6 9 -23 20 -39 11 -16 31 -56 45 -89 14 -33 30 -61 36 -63 16
-5 5 108 -12 125 -10 10 -11 18 -3 33 5 11 10 59 10 106 0 57 4 90 12 95 12 8
-41 9 -80 1z m47 -63 c0 -5 -5 -10 -11 -10 -5 0 -7 5 -4 10 3 6 8 10 11 10 2
0 4 -4 4 -10z m-40 -21 c0 -5 -4 -9 -10 -9 -5 0 -10 7 -10 16 0 8 5 12 10 9 6
-3 10 -10 10 -16z m27 -39 c-3 -39 -17 -39 -17 0 0 17 4 30 10 30 5 0 8 -13 7
-30z"/>
<path d="M1575 2201 c-3 -5 -1 -12 5 -16 5 -3 10 1 10 9 0 18 -6 21 -15 7z"/>
<path d="M1512 2185 c-12 -9 -28 -15 -36 -13 -8 2 -15 -1 -16 -7 -2 -21 51
-17 71 6 29 34 20 41 -19 14z"/>
<path d="M4615 2188 c-16 -5 -61 -18 -100 -28 -38 -11 -55 -17 -37 -15 22 3
31 1 26 -6 -5 -8 -35 -9 -96 -4 -71 5 -93 4 -106 -8 -9 -8 -29 -17 -44 -21
-16 -3 -28 -11 -28 -16 0 -11 136 -5 171 8 41 16 249 27 249 13 0 -6 -12 -12
-27 -12 -97 -5 -123 -12 -123 -30 0 -7 17 -10 50 -7 31 2 46 0 40 -6 -18 -18
-10 -29 8 -14 9 9 40 19 67 22 98 12 285 59 285 72 0 6 7 15 16 18 26 10 29 7
8 -9 -19 -16 -19 -16 1 -13 14 2 21 12 23 31 3 27 2 28 -30 22 -52 -9 -243
-23 -248 -18 -2 2 1 8 9 12 32 20 -59 27 -114 9z m55 -28 c-8 -5 -24 -9 -35
-9 -16 1 -16 2 5 9 35 11 48 11 30 0z m-92 -17 c-10 -2 -28 -2 -40 0 -13 2 -5
4 17 4 22 1 32 -1 23 -4z m335 0 c-7 -2 -19 -2 -25 0 -7 3 -2 5 12 5 14 0 19
-2 13 -5z m-96 -9 c-3 -3 -12 -4 -19 -1 -8 3 -5 6 6 6 11 1 17 -2 13 -5z m-54
-11 c-7 -2 -21 -2 -30 0 -10 3 -4 5 12 5 17 0 24 -2 18 -5z"/>
<path d="M1605 2169 c-10 -15 -2 -19 23 -12 12 3 19 9 16 14 -7 12 -31 11 -39
-2z"/>
<path d="M1333 2143 c-22 -4 -21 -6 15 -52 l37 -48 38 25 c34 23 48 42 30 42
-26 -1 -53 -15 -53 -28 0 -10 -8 -6 -25 13 -25 26 -25 28 -8 41 19 14 12 16
-34 7z"/>
<path d="M1624 2125 c-4 -8 -10 -12 -15 -9 -16 10 -68 -20 -71 -40 -3 -20 -37
-37 -101 -51 -22 -4 -26 -9 -18 -19 6 -7 8 -16 4 -19 -3 -4 2 -7 11 -7 10 0
31 -9 47 -21 l30 -21 52 20 c29 11 74 26 100 32 35 10 47 17 45 29 -2 9 -11
16 -19 16 -9 0 -23 6 -32 13 -14 12 -20 10 -38 -7 -31 -29 -59 -27 -59 3 0 26
13 40 50 51 24 7 40 22 40 38 0 13 -21 7 -26 -8z"/>
<path d="M1693 2108 c-2 -18 0 -20 7 -8 12 18 13 30 2 30 -4 0 -9 -10 -9 -22z"/>
<path d="M213 2112 c-15 -2 -23 -10 -23 -23 0 -11 3 -18 8 -16 8 6 6 -118 -3
-133 -3 -5 -2 -10 4 -10 12 0 45 85 37 98 -3 5 -2 23 3 39 11 37 3 49 -26 45z"/>
<path d="M900 2100 c0 -5 5 -10 11 -10 5 0 7 5 4 10 -3 6 -8 10 -11 10 -2 0
-4 -4 -4 -10z"/>
<path d="M4104 2080 c-12 -5 -24 -12 -27 -17 -8 -12 82 -3 110 12 24 13 24 13
-18 13 -24 0 -54 -4 -65 -8z"/>
<path d="M668 2073 c7 -3 16 -2 19 1 4 3 -2 6 -13 5 -11 0 -14 -3 -6 -6z"/>
<path d="M4953 2064 c-7 -20 8 -67 22 -68 6 -1 11 18 13 42 2 33 0 42 -13 42
-8 0 -18 -7 -22 -16z"/>
<path d="M590 2059 c-14 -6 -40 -9 -58 -7 -28 3 -31 1 -26 -15 5 -16 2 -18
-15 -12 -24 7 -25 6 -11 -29 5 -14 16 -26 24 -26 23 0 37 -25 28 -51 l-9 -23
-13 23 c-10 19 -14 21 -22 10 -7 -11 -12 -10 -25 9 -8 12 -22 22 -29 22 -16 0
-10 43 9 70 6 8 -2 3 -18 -12 -19 -18 -30 -41 -34 -69 -7 -48 -21 -58 -45 -33
-20 19 -34 11 -17 -10 15 -17 69 -26 75 -12 2 6 16 -1 30 -16 28 -29 47 -39
26 -13 -8 10 -9 15 -1 15 6 0 16 -9 23 -20 7 -11 18 -20 24 -20 7 0 33 -20 58
-44 27 -27 48 -41 52 -34 4 7 10 4 16 -6 7 -13 13 -14 23 -6 11 9 22 0 55 -41
23 -29 44 -65 47 -81 5 -27 20 -45 29 -36 2 3 -2 24 -10 47 -9 23 -15 44 -14
47 1 7 -48 109 -78 163 -28 51 -26 63 5 30 35 -38 24 -1 -18 62 -22 33 -35 59
-30 59 6 0 7 9 4 21 -5 15 -4 19 4 15 6 -4 11 -1 11 7 0 8 -7 18 -16 21 -19 7
-23 7 -54 -5z m75 -239 c3 -5 1 -10 -4 -10 -6 0 -11 5 -11 10 0 6 2 10 4 10 3
0 8 -4 11 -10z"/>
<path d="M36 2047 c3 -10 9 -15 12 -12 3 3 0 11 -7 18 -10 9 -11 8 -5 -6z"/>
<path d="M4290 2050 c-8 -5 -22 -7 -30 -5 -8 2 -22 0 -30 -6 -12 -9 -11 -10 8
-6 15 3 22 0 22 -9 0 -17 12 -18 28 -2 6 6 28 13 48 15 63 7 76 22 19 23 -27
0 -57 -5 -65 -10z"/>
<path d="M4538 2033 c7 -3 16 -2 19 1 4 3 -2 6 -13 5 -11 0 -14 -3 -6 -6z"/>
<path d="M895 2010 c-8 -13 20 -24 36 -15 8 6 7 10 -2 16 -18 11 -26 11 -34
-1z"/>
<path d="M171 1994 c0 -11 3 -14 6 -6 3 7 2 16 -1 19 -3 4 -6 -2 -5 -13z"/>
<path d="M678 1988 c12 -12 25 -18 29 -14 4 4 -1 14 -11 22 -31 22 -43 17 -18
-8z"/>
<path d="M3732 2003 c18 -5 31 -30 22 -44 -10 -16 12 -10 35 10 13 11 20 25
16 31 -5 8 -12 6 -25 -5 -16 -14 -18 -14 -23 0 -4 8 -14 14 -24 14 -16 -1 -16
-2 -1 -6z"/>
<path d="M290 1980 c0 -5 5 -10 10 -10 6 0 10 5 10 10 0 6 -4 10 -10 10 -5 0
-10 -4 -10 -10z"/>
<path d="M3604 1962 c2 -9 10 -18 19 -20 12 -2 15 1 11 12 -8 21 -33 28 -30 8z"/>
<path d="M4590 1951 c0 -17 31 -21 63 -7 l32 14 -47 1 c-27 1 -48 -3 -48 -8z"/>
<path d="M3415 1910 c10 -11 20 -18 23 -15 7 6 -18 35 -31 35 -5 0 -2 -9 8
-20z"/>
<path d="M3660 1911 c0 -5 -3 -16 -6 -24 -4 -12 0 -14 15 -10 28 7 37 23 20
34 -18 11 -29 11 -29 0z"/>
<path d="M1745 1890 c-3 -5 1 -10 10 -10 9 0 13 5 10 10 -3 6 -8 10 -10 10 -2
0 -7 -4 -10 -10z"/>
<path d="M3764 1889 c-18 -5 -35 -16 -38 -25 -5 -14 -2 -15 21 -9 16 3 42 7
58 8 19 1 30 7 30 17 0 18 -29 22 -71 9z"/>
<path d="M192 1854 c-2 -30 1 -35 16 -30 11 4 27 -2 40 -14 12 -12 22 -17 22
-13 0 4 10 -4 23 -18 24 -28 109 -66 104 -48 -1 6 4 14 11 16 6 3 12 -2 12
-10 0 -15 41 -47 60 -47 5 0 10 7 10 15 0 8 -9 15 -20 15 -11 0 -20 7 -20 15
0 8 7 15 15 15 8 0 15 5 15 10 0 7 -8 7 -22 -1 -17 -9 -24 -9 -32 2 -6 8 -29
15 -51 17 -32 3 -48 12 -82 48 -24 24 -52 44 -63 44 -11 0 -20 5 -20 10 0 6
-3 10 -7 10 -5 0 -9 -16 -11 -36z"/>
<path d="M3905 1880 c-3 -5 3 -10 15 -10 12 0 18 5 15 10 -3 6 -10 10 -15 10
-5 0 -12 -4 -15 -10z"/>
<path d="M4680 1860 c0 -5 5 -10 10 -10 6 0 10 5 10 10 0 6 -4 10 -10 10 -5 0
-10 -4 -10 -10z"/>
<path d="M75 1840 c-3 -5 -1 -10 4 -10 6 0 11 5 11 10 0 6 -2 10 -4 10 -3 0
-8 -4 -11 -10z"/>
<path d="M966 1835 c4 -8 8 -15 10 -15 2 0 4 7 4 15 0 8 -4 15 -10 15 -5 0 -7
-7 -4 -15z"/>
<path d="M3675 1830 c3 -5 8 -10 11 -10 2 0 4 5 4 10 0 6 -5 10 -11 10 -5 0
-7 -4 -4 -10z"/>
<path d="M1006 1795 c4 -8 11 -15 16 -15 6 0 5 6 -2 15 -7 8 -14 15 -16 15 -2
0 -1 -7 2 -15z"/>
<path d="M760 1773 c0 -5 6 -18 14 -28 12 -17 16 -17 30 -6 21 18 33 6 16 -14
-12 -14 -10 -15 16 -9 38 9 38 9 24 34 -10 18 -18 21 -42 16 -18 -3 -37 -1
-44 5 -8 6 -14 7 -14 2z"/>
<path d="M1155 1770 c3 -5 8 -10 11 -10 2 0 4 5 4 10 0 6 -5 10 -11 10 -5 0
-7 -4 -4 -10z"/>
<path d="M4700 1764 c0 -8 -4 -14 -10 -14 -5 0 -10 5 -10 10 0 6 -6 10 -12 10
-7 0 0 -12 15 -25 29 -26 47 -32 47 -16 0 5 3 16 6 24 3 9 -3 16 -15 20 -14 3
-21 0 -21 -9z"/>
<path d="M1130 1761 c0 -5 7 -12 16 -15 14 -5 15 -4 4 9 -14 17 -20 19 -20 6z"/>
<path d="M4220 1734 c0 -4 16 -28 35 -54 19 -26 35 -53 35 -60 0 -7 8 -9 23
-4 12 4 34 7 50 6 34 -3 35 16 2 52 -14 15 -25 30 -25 33 0 3 11 3 25 1 28 -6
34 8 7 16 -27 9 -152 17 -152 10z"/>
<path d="M4180 1721 c0 -5 6 -14 14 -20 12 -10 13 -8 9 8 -5 21 -23 30 -23 12z"/>
<path d="M4025 1699 c-4 -6 -4 -13 -1 -16 3 -4 6 -1 6 5 0 7 5 12 11 12 6 0 8
-8 4 -19 -4 -14 2 -24 25 -37 16 -10 30 -23 30 -29 0 -5 7 -2 14 8 13 17 10
67 -3 67 -17 0 -19 -13 -5 -27 8 -9 13 -17 11 -19 -7 -7 -37 7 -37 17 0 11
-32 49 -42 49 -4 0 -10 -5 -13 -11z"/>
<path d="M4410 1652 c0 -32 5 -43 26 -57 40 -26 56 -3 21 29 -15 14 -27 32
-27 40 0 8 -4 18 -10 21 -6 4 -10 -10 -10 -33z"/>
<path d="M416 1671 c-7 -11 3 -41 14 -41 5 0 11 4 15 10 3 5 13 6 23 3 15 -6
15 -4 -2 15 -20 23 -41 28 -50 13z"/>
<path d="M686 1665 c4 -8 11 -15 16 -15 6 0 5 6 -2 15 -7 8 -14 15 -16 15 -2
0 -1 -7 2 -15z"/>
<path d="M4060 1620 c11 -11 22 -20 25 -20 3 0 0 9 -7 20 -7 11 -18 20 -25 20
-8 0 -5 -8 7 -20z"/>
<path d="M450 1628 c0 -4 9 -23 20 -42 l19 -35 -27 -23 c-16 -13 -64 -34 -108
-47 -98 -28 -115 -40 -116 -80 -1 -17 -5 -31 -9 -31 -10 0 1 -72 12 -85 5 -5
9 -19 9 -32 0 -26 18 -69 42 -102 10 -13 18 -34 18 -47 0 -26 10 -30 28 -12
17 17 15 25 -10 32 -19 5 -20 8 -8 16 8 5 24 7 36 4 17 -5 31 8 73 65 53 73
120 131 153 131 10 0 27 9 38 20 22 22 103 29 115 10 11 -18 41 -11 83 20 45
32 51 50 26 71 -15 12 -16 11 -10 -8 5 -14 2 -24 -8 -30 -8 -4 -15 -11 -15
-15 -1 -5 -1 -11 -2 -15 0 -5 -4 1 -9 12 -5 13 -3 26 7 37 13 15 13 16 -6 11
-20 -5 -20 -4 5 41 14 25 23 50 19 56 -8 13 -42 13 -50 -1 -4 -6 -13 -8 -20
-5 -8 3 -19 -2 -25 -10 -7 -8 -20 -14 -29 -14 -9 0 -29 -7 -44 -15 -25 -13
-30 -12 -47 5 -11 11 -25 20 -30 20 -12 0 -32 15 -62 48 -12 12 -26 22 -31 22
-5 0 -16 8 -23 18 -7 9 -14 14 -14 10z m-98 -202 c9 -4 25 -3 36 3 14 7 19 7
19 -4 0 -8 -3 -13 -6 -13 -11 2 -64 -15 -90 -28 -31 -16 -51 -18 -51 -4 0 6 9
10 19 10 11 0 23 5 26 10 3 6 -1 10 -11 10 -13 0 -14 3 -5 13 11 14 34 15 63
3z m158 4 c13 -8 13 -10 -2 -10 -9 0 -22 -2 -30 -3 -7 -2 -10 -2 -5 0 4 3 5 9
1 14 -7 12 17 11 36 -1z m-60 -21 c0 -4 -7 -6 -15 -3 -8 4 -15 10 -15 15 0 4
7 6 15 3 8 -4 15 -10 15 -15z m-32 -107 c2 -7 -2 -10 -12 -6 -9 3 -16 11 -16
16 0 13 23 5 28 -10z m-73 -2 c3 -5 2 -10 -4 -10 -5 0 -13 5 -16 10 -3 6 -2
10 4 10 5 0 13 -4 16 -10z m-55 -44 c0 -8 -4 -17 -8 -20 -4 -2 -8 4 -8 15 0
10 4 19 8 19 4 0 8 -6 8 -14z"/>
<path d="M810 1606 c0 -2 7 -7 16 -10 8 -3 12 -2 9 4 -6 10 -25 14 -25 6z"/>
<path d="M660 1560 c0 -5 5 -10 10 -10 6 0 10 5 10 10 0 6 -4 10 -10 10 -5 0
-10 -4 -10 -10z"/>
<path d="M4440 1540 c0 -5 5 -10 10 -10 6 0 10 5 10 10 0 6 -4 10 -10 10 -5 0
-10 -4 -10 -10z"/>
<path d="M4378 1533 c-3 -4 3 -16 13 -25 15 -14 20 -15 36 -2 17 14 17 14 -1
7 -12 -4 -23 0 -31 11 -7 9 -15 14 -17 9z"/>
<path d="M4944 1525 c3 -11 -1 -33 -9 -49 -19 -35 -9 -53 16 -30 14 13 16 20
8 30 -6 7 -8 18 -4 23 3 6 1 19 -5 28 -10 16 -10 16 -6 -2z"/>
<path d="M1106 1482 c-2 -4 -1 -14 5 -22 7 -12 9 -10 9 8 0 23 -5 28 -14 14z"/>
<path d="M1065 1459 c-4 -6 -5 -12 -2 -15 2 -3 7 2 10 11 7 17 1 20 -8 4z"/>
<path d="M4460 1450 c-9 -6 -10 -10 -3 -10 6 0 15 5 18 10 8 12 4 12 -15 0z"/>
<path d="M183 1435 c-3 -9 -3 -19 1 -22 3 -4 6 1 6 11 0 13 5 16 20 11 11 -4
20 -2 20 4 0 17 -40 13 -47 -4z"/>
<path d="M109 1393 l0 -28 -11 25 -10 25 -9 -23 c-5 -13 -13 -21 -18 -18 -5 4
-13 -8 -16 -26 -4 -17 -13 -38 -20 -45 -10 -10 -13 -5 -11 25 1 20 -1 48 -5
62 -4 14 -7 -63 -7 -171 l-1 -196 25 -12 c28 -12 30 -7 8 34 -20 38 -30 110
-16 119 16 10 23 -8 26 -72 2 -35 10 -69 19 -83 10 -13 17 -31 17 -41 0 -12
13 -21 43 -28 23 -6 67 -18 97 -26 38 -11 56 -12 58 -5 5 15 18 14 34 -3 12
-11 17 -11 34 1 18 15 18 15 -3 8 -20 -5 -23 -3 -23 21 0 15 -7 35 -15 44 -17
19 -27 53 -27 88 0 15 -6 22 -19 22 -18 0 -18 -20 2 -45 4 -6 10 -35 14 -65 4
-46 3 -51 -6 -32 -7 12 -15 22 -19 22 -4 0 -7 15 -8 33 -2 49 -19 87 -39 88
-13 1 -11 3 5 7 13 4 23 12 23 17 -3 35 -15 75 -23 75 -6 0 -8 -7 -4 -15 10
-26 -8 -16 -21 12 -9 18 -10 30 -2 39 12 14 -5 29 -21 19 -6 -3 -12 1 -15 9
-16 51 -17 52 -31 20 -9 -22 -10 -42 -5 -62 5 -17 7 -33 3 -36 -3 -3 0 -6 6
-6 6 0 14 6 18 12 6 9 10 5 14 -12 4 -14 13 -24 22 -24 22 2 11 -33 -13 -39
-10 -3 -17 -1 -13 4 3 5 -4 9 -15 9 -14 0 -21 6 -21 19 0 10 -6 21 -14 24 -10
4 -12 19 -8 56 3 37 0 58 -12 76 -9 14 -13 26 -9 27 26 5 63 3 63 -4 0 -4 7
-8 15 -8 8 0 15 -3 15 -7 0 -5 12 -9 26 -9 23 -2 24 0 11 15 -8 9 -18 31 -22
49 -4 18 -10 30 -15 27 -4 -3 -10 2 -13 9 -3 8 -1 17 6 20 7 2 0 5 -15 5 -24
1 -28 -3 -29 -26z m-53 -154 c7 -11 -22 -47 -30 -38 -8 7 5 49 15 49 4 0 11
-5 15 -11z m24 -114 c0 -8 -4 -15 -10 -15 -5 0 -10 7 -10 15 0 8 5 15 10 15 6
0 10 -7 10 -15z m150 -85 c0 -5 -2 -10 -4 -10 -3 0 -8 5 -11 10 -3 6 -1 10 4
10 6 0 11 -4 11 -10z"/>
<path d="M1075 1380 c-3 -5 -1 -10 4 -10 6 0 11 5 11 10 0 6 -2 10 -4 10 -3 0
-8 -4 -11 -10z"/>
<path d="M750 1296 c-29 -17 -141 -128 -134 -135 2 -2 29 21 60 52 31 31 60
57 65 57 5 0 23 9 41 20 26 15 29 20 13 20 -11 -1 -31 -7 -45 -14z"/>
<path d="M557 1247 c-26 -23 -47 -46 -47 -50 0 -5 12 3 28 17 15 14 41 37 57
51 17 14 26 25 20 25 -5 -1 -31 -20 -58 -43z"/>
<path d="M240 1161 c0 -6 4 -13 10 -16 6 -3 7 1 4 9 -7 18 -14 21 -14 7z"/>
<path d="M514 1128 l-19 -23 23 19 c21 18 27 26 19 26 -2 0 -12 -10 -23 -22z"/>
<path d="M496 1071 c-47 -26 -79 -52 -98 -80 -27 -38 -28 -41 -9 -41 11 0 29
12 40 28 37 49 43 54 62 49 12 -3 19 0 19 9 0 7 11 21 24 29 19 13 45 47 33
45 -1 -1 -33 -18 -71 -39z"/>
<path d="M307 1063 c-15 -15 -7 -63 13 -73 17 -9 20 -8 20 9 0 11 -5 23 -11
27 -6 3 -9 15 -6 25 5 19 -3 25 -16 12z"/>
<path d="M10 986 c0 -2 7 -7 16 -10 8 -3 12 -2 9 4 -6 10 -25 14 -25 6z"/>
<path d="M378 913 c6 -2 18 -2 25 0 6 3 1 5 -13 5 -14 0 -19 -2 -12 -5z"/>
<path d="M80 435 c0 -10 9 -15 27 -15 29 0 29 2 -4 19 -19 10 -23 9 -23 -4z"/>
<path d="M103 383 c-19 -7 -16 -40 4 -52 14 -8 15 -11 4 -25 -17 -21 -5 -35
13 -15 16 17 38 79 27 79 -4 0 -13 -6 -20 -12 -11 -11 -13 -10 -8 4 7 19 -2
28 -20 21z"/>
</g>
</svg>
